<svg width="48" height="48" viewBox="0 0 48 48" fill="none" xmlns="http://www.w3.org/2000/svg">
<path d="M24.2144 32.7227H22.9321V34.8459H24.2144V32.7227Z" fill="black" fill-opacity="0.6"/>
<path d="M22.9321 37.6098H22.291V38.8923H24.2146V36.9688H22.9321V37.6098Z" fill="black" fill-opacity="0.6"/>
<path d="M19.9525 37.6104H17.6143V38.8926H19.9525V37.6104Z" fill="black" fill-opacity="0.6"/>
<path d="M15.2763 37.6104H12.938V38.8926H15.2763V37.6104Z" fill="black" fill-opacity="0.6"/>
<path d="M10.5998 37.6104H8.26172V38.8926H10.5998V37.6104Z" fill="black" fill-opacity="0.6"/>
<path d="M5.28207 36.9688H4V38.8923H5.92311V37.6098H5.28207V36.9688Z" fill="black" fill-opacity="0.6"/>
<path d="M5.28223 27.6143H4V29.953H5.28223V27.6143Z" fill="black" fill-opacity="0.6"/>
<path d="M5.28223 22.9365H4V25.2751H5.28223V22.9365Z" fill="black" fill-opacity="0.6"/>
<path d="M5.28223 32.292H4V34.6307H5.28223V32.292Z" fill="black" fill-opacity="0.6"/>
<path d="M4 20.5984H5.28207V19.9574H5.92311V18.6748H4V20.5984Z" fill="black" fill-opacity="0.6"/>
<path d="M10.2017 18.6748H8.0625V19.957H10.2017V18.6748Z" fill="black" fill-opacity="0.6"/>
<path d="M43.9813 25.3148C43.9549 25.2058 43.9005 25.1055 43.8235 25.024C43.7465 24.9425 43.6495 24.8825 43.5421 24.85L38.7658 23.4203V9.74854C38.7658 9.66434 38.7493 9.58096 38.7171 9.50317C38.6849 9.42537 38.6376 9.35469 38.5781 9.29515C38.5186 9.23561 38.4479 9.18839 38.3701 9.15618C38.2923 9.12397 38.2089 9.1074 38.1247 9.10743H13.6245C13.5402 9.10713 13.4567 9.12352 13.3788 9.15563C13.3009 9.18775 13.2301 9.23496 13.1705 9.29455C13.1109 9.35414 13.0637 9.42494 13.0316 9.50285C12.9995 9.58077 12.9831 9.66426 12.9834 9.74854V18.6761H12.3423V19.9583H12.9834V29.9597H22.9335V30.6008H24.2157V29.9597H33.1369L34.3582 33.7166C34.3927 33.8195 34.4524 33.9122 34.5319 33.9861C34.6114 34.06 34.7082 34.1128 34.8134 34.1397C34.9187 34.1662 35.029 34.1653 35.1339 34.1373C35.2387 34.1092 35.3348 34.0549 35.4128 33.9795L38.1087 31.3926L40.5225 33.8096C40.6429 33.9297 40.806 33.9971 40.9761 33.9971C41.1461 33.9971 41.3092 33.9297 41.4296 33.8096L43.4812 31.758C43.5414 31.6988 43.5891 31.6282 43.6218 31.5503C43.6544 31.4724 43.6712 31.3888 43.6712 31.3044C43.6712 31.22 43.6544 31.1364 43.6218 31.0585C43.5891 30.9807 43.5414 30.9101 43.4812 30.8508L41.1283 28.4947L43.8018 25.9271C43.8833 25.8501 43.9429 25.7528 43.9744 25.6452C44.0059 25.5376 44.0083 25.4236 43.9813 25.3148ZM14.2656 28.6774V23.0452L19.6093 16.3328C19.7129 16.2002 19.8432 16.0909 19.9917 16.0119C20.1403 15.933 20.3038 15.8861 20.4716 15.8744C20.6398 15.8607 20.809 15.8821 20.9685 15.9373C21.128 15.9925 21.2743 16.0802 21.398 16.1949L31.7584 25.7251L32.7169 28.6774H14.2656ZM37.4836 23.0356L31.3417 21.1988C31.2293 21.1659 31.11 21.1639 30.9966 21.1933C30.8831 21.2226 30.7797 21.2822 30.6974 21.3655C30.6156 21.4495 30.5583 21.5542 30.5318 21.6683C30.5052 21.7824 30.5104 21.9017 30.5467 22.0131L31.1494 23.8595L27.8637 20.8366L33.0856 17.2817C33.3807 17.0817 33.7328 16.983 34.0889 17.0003C34.445 17.0177 34.7858 17.1501 35.0602 17.3778L37.4836 19.4038V23.0356ZM37.4836 18.1503L35.6789 16.6405C35.2438 16.2782 34.7026 16.0672 34.1371 16.0394C33.5715 16.0117 33.0123 16.1686 32.5438 16.4866L27.136 20.1666L22.0488 15.4865C21.8276 15.2833 21.567 15.1278 21.2831 15.0296C20.9992 14.9314 20.6982 14.8927 20.3987 14.9159C20.0993 14.939 19.8078 15.0235 19.5424 15.1642C19.277 15.3048 19.0433 15.4985 18.856 15.7333L14.2656 21.5002V10.3896H37.4836V18.1503Z" fill="black" fill-opacity="0.6"/>
<path d="M27.0914 11.9795C26.5731 11.9792 26.0663 12.1326 25.6352 12.4202C25.2041 12.7079 24.868 13.117 24.6693 13.5957C24.4707 14.0745 24.4185 14.6013 24.5193 15.1097C24.6201 15.6181 24.8694 16.0852 25.2356 16.4519C25.6019 16.8186 26.0687 17.0685 26.577 17.1699C27.0853 17.2714 27.6122 17.2198 28.0912 17.0218C28.5701 16.8237 28.9796 16.4881 29.2678 16.0573C29.556 15.6265 29.71 15.12 29.7104 14.6017C29.7103 13.9068 29.4344 13.2404 28.9434 12.7488C28.4523 12.2571 27.7863 11.9805 27.0914 11.9795ZM27.0914 16.2589C26.7632 16.2593 26.4422 16.1622 26.1692 15.98C25.8961 15.7979 25.6832 15.5388 25.5575 15.2356C25.4317 14.9324 25.3987 14.5988 25.4627 14.2768C25.5266 13.9549 25.6847 13.6591 25.9168 13.427C26.1489 13.1949 26.4446 13.0369 26.7665 12.973C27.0885 12.909 27.4222 12.942 27.7254 13.0677C28.0285 13.1935 28.2876 13.4064 28.4698 13.6794C28.6519 13.9525 28.749 14.2734 28.7487 14.6017C28.7481 15.041 28.5733 15.4622 28.2626 15.7729C27.952 16.0836 27.5308 16.2584 27.0914 16.2589Z" fill="black" fill-opacity="0.6"/>
</svg>
