<svg width="80" height="80" viewBox="0 0 80 80" fill="none" xmlns="http://www.w3.org/2000/svg">
<path d="M46.0645 18.8236C53.7725 17.2741 59.9781 10.993 61.5298 3.08594C63.0818 10.993 69.2858 17.2741 76.9935 18.8236M76.9935 18.8326C69.2858 20.3821 63.0801 26.6632 61.5285 34.5703C59.9765 26.6632 53.7725 20.3821 46.0645 18.8326" stroke="black" stroke-width="3.33333" stroke-linecap="round" stroke-linejoin="round"/>
<path d="M70.1473 43.8089V73.5805C70.1473 75.4215 68.655 76.9138 66.814 76.9138H6.34113C4.5002 76.9138 3.00781 75.4215 3.00781 73.5805V31.7576C3.00781 29.9167 4.5002 28.4243 6.34113 28.4243H41.962" stroke="black" stroke-width="3.33333" stroke-linecap="round" stroke-linejoin="round"/>
<path d="M4.04932 29.5571L31.6511 53.8988C33.0139 55.1008 34.7685 55.7642 36.5858 55.7642C38.4032 55.7642 40.1578 55.1008 41.5205 53.8988L55.3215 41.7282" stroke="black" stroke-width="3.33333" stroke-linecap="round" stroke-linejoin="round"/>
</svg>
