<svg width="40" height="40" viewBox="0 0 40 40" fill="none" xmlns="http://www.w3.org/2000/svg">
<g clip-path="url(#clip0_19_741)">
<path d="M39.1663 34.1665V37.4998C39.1663 37.9419 38.9907 38.3658 38.6782 38.6783C38.3656 38.9909 37.9417 39.1665 37.4997 39.1665H2.49967C2.05765 39.1665 1.63372 38.9909 1.32116 38.6783C1.0086 38.3658 0.833008 37.9419 0.833008 37.4998V34.1665H39.1663Z" fill="#EBF1F2"/>
<path d="M39.1663 2.50016V34.1668H0.833008V2.50016C0.833008 2.05814 1.0086 1.63421 1.32116 1.32165C1.63372 1.00909 2.05765 0.833496 2.49967 0.833496H37.4997C37.9417 0.833496 38.3656 1.00909 38.6782 1.32165C38.9907 1.63421 39.1663 2.05814 39.1663 2.50016Z" fill="#EBF1F2"/>
<path d="M14.1616 4.1665H25.8283V22.4998H14.1616V4.1665Z" fill="#EBF1F2"/>
<path d="M0.833496 37.5C0.833496 37.942 1.00909 38.3659 1.32165 38.6785C1.63421 38.991 2.05814 39.1666 2.50016 39.1666H37.5002C37.9422 39.1666 38.3661 38.991 38.6787 38.6785C38.9912 38.3659 39.1668 37.942 39.1668 37.5V36.1816H0.833496V37.5Z" fill="black" fill-opacity="0.38"/>
<path d="M39.1663 34.1665H0.833008" stroke="#191919" stroke-width="1.66667" stroke-linecap="round" stroke-linejoin="round"/>
<path d="M14.167 4.1665H25.8337V22.4998H14.167V4.1665Z" stroke="#191919" stroke-width="1.66667" stroke-linecap="round" stroke-linejoin="round"/>
<path d="M15.8337 29.1665L14.167 34.1665" stroke="#191919" stroke-width="1.66667" stroke-linecap="round" stroke-linejoin="round"/>
<path d="M25.8332 27.5C25.8332 27.942 25.6576 28.366 25.345 28.6785C25.0325 28.9911 24.6085 29.1667 24.1665 29.1667H15.8332C15.3911 29.1667 14.9672 28.9911 14.6547 28.6785C14.3421 28.366 14.1665 27.942 14.1665 27.5" stroke="#191919" stroke-width="1.66667" stroke-linecap="round" stroke-linejoin="round"/>
<path d="M24.167 29.1665L25.8337 34.1665" stroke="#191919" stroke-width="1.66667" stroke-linecap="round" stroke-linejoin="round"/>
<path d="M17.5 13.3333L19.09 12.1417C19.2874 11.9937 19.4463 11.8006 19.5536 11.5785C19.6609 11.3564 19.7133 11.1118 19.7064 10.8652C19.6996 10.6187 19.6336 10.3773 19.5142 10.1615C19.3948 9.94573 19.2253 9.76174 19.02 9.625C18.8089 9.48397 18.6358 9.29309 18.5161 9.06926C18.3963 8.84542 18.3335 8.59553 18.3333 8.34167V7.5H20.8333" stroke="#191919" stroke-width="1.66667" stroke-linecap="round" stroke-linejoin="round"/>
<path d="M20 17.5V19.1667" stroke="#191919" stroke-width="1.66667" stroke-linecap="round" stroke-linejoin="round"/>
<path d="M27.5 22.5H12.5" stroke="#191919" stroke-width="1.66667" stroke-linecap="round" stroke-linejoin="round"/>
<path d="M27.5 4.1665H12.5" stroke="#191919" stroke-width="1.66667" stroke-linecap="round" stroke-linejoin="round"/>
<path d="M17.5 17.5H20.0967C20.7971 17.5009 21.48 17.2811 22.0485 16.8718C22.6169 16.4625 23.042 15.8846 23.2633 15.22L23.3333 15" stroke="#191919" stroke-width="1.66667" stroke-linecap="round" stroke-linejoin="round"/>
<path d="M4.1665 25L5.48817 29.625C5.58771 29.973 5.79785 30.2792 6.08682 30.4972C6.37578 30.7152 6.72786 30.8332 7.08984 30.8333H9.99984" stroke="#191919" stroke-width="1.66667" stroke-linecap="round" stroke-linejoin="round"/>
<path d="M35.8333 25L34.5117 29.625C34.4121 29.973 34.202 30.2792 33.913 30.4972C33.6241 30.7152 33.272 30.8332 32.91 30.8333H30" stroke="#191919" stroke-width="1.66667" stroke-linecap="round" stroke-linejoin="round"/>
<path d="M2.49967 0.833496H37.4997C37.4997 0.833496 39.1663 0.833496 39.1663 2.50016V37.5002C39.1663 37.5002 39.1663 39.1668 37.4997 39.1668H2.49967C2.49967 39.1668 0.833008 39.1668 0.833008 37.5002V2.50016C0.833008 2.50016 0.833008 0.833496 2.49967 0.833496Z" stroke="#191919" stroke-width="1.66667" stroke-linecap="round" stroke-linejoin="round"/>
</g>
<defs>
<clipPath id="clip0_19_741">
<rect width="40" height="40" fill="white"/>
</clipPath>
</defs>
</svg>
