<svg width="40" height="40" viewBox="0 0 40 40" fill="none" xmlns="http://www.w3.org/2000/svg">
<g clip-path="url(#clip0_19_717)">
<path d="M2.49967 29.166H37.4997C37.4997 29.166 39.1663 29.166 39.1663 30.8327V32.4993C39.1663 32.4993 39.1663 34.166 37.4997 34.166H2.49967C2.49967 34.166 0.833008 34.166 0.833008 32.4993V30.8327C0.833008 30.8327 0.833008 29.166 2.49967 29.166Z" fill="black" fill-opacity="0.38"/>
<path d="M32.4997 29.1673H25.833V26.104C25.8328 22.8194 26.3313 19.5539 27.3113 16.419C27.3642 16.2495 27.4699 16.1013 27.6129 15.9961C27.7559 15.8909 27.9288 15.8341 28.1063 15.834H30.2263C30.4039 15.8341 30.5768 15.8909 30.7198 15.9961C30.8628 16.1013 30.9684 16.2495 31.0213 16.419C32.0014 19.5539 32.4999 22.8194 32.4997 26.104V29.1673Z" fill="black" fill-opacity="0.38"/>
<path d="M29.3332 15.834H28.1132C27.9353 15.8337 27.7621 15.8904 27.6188 15.9956C27.4754 16.1009 27.3695 16.2492 27.3165 16.419C26.3377 19.5542 25.8399 22.8196 25.8398 26.104V29.1673H29.3398L29.3332 15.834Z" fill="#EBF1F2"/>
<path d="M37.4997 29.166H2.49967C2.05765 29.166 1.63372 29.3416 1.32116 29.6542C1.0086 29.9667 0.833008 30.3907 0.833008 30.8327V32.4993C0.841281 32.6541 0.872164 32.8069 0.924674 32.9527C1.0183 32.6058 1.22301 32.2992 1.50746 32.0798C1.79191 31.8604 2.14043 31.7402 2.49967 31.7377H37.4997C37.8589 31.7402 38.2074 31.8604 38.4919 32.0798C38.7763 32.2992 38.981 32.6058 39.0747 32.9527C39.1264 32.8066 39.1572 32.654 39.1663 32.4993V30.8327C39.1663 30.3907 38.9907 29.9667 38.6782 29.6542C38.3656 29.3416 37.9417 29.166 37.4997 29.166Z" fill="#EBF1F2"/>
<path d="M2.49967 29.166H37.4997C37.4997 29.166 39.1663 29.166 39.1663 30.8327V32.4993C39.1663 32.4993 39.1663 34.166 37.4997 34.166H2.49967C2.49967 34.166 0.833008 34.166 0.833008 32.4993V30.8327C0.833008 30.8327 0.833008 29.166 2.49967 29.166Z" stroke="#191919" stroke-width="1.85417" stroke-linecap="round" stroke-linejoin="round"/>
<path d="M6.66699 34.166L4.16699 39.166" stroke="#191919" stroke-width="1.85417" stroke-linecap="round" stroke-linejoin="round"/>
<path d="M33.333 34.166L35.833 39.166" stroke="#191919" stroke-width="1.85417" stroke-linecap="round" stroke-linejoin="round"/>
<path d="M32.4997 29.1673H25.833V26.104C25.8328 22.8194 26.3313 19.5539 27.3113 16.419C27.3642 16.2495 27.4699 16.1013 27.6129 15.9961C27.7559 15.8909 27.9288 15.8341 28.1063 15.834H30.2263C30.4039 15.8341 30.5768 15.8909 30.7198 15.9961C30.8628 16.1013 30.9684 16.2495 31.0213 16.419C32.0014 19.5539 32.4999 22.8194 32.4997 26.104V29.1673Z" stroke="#191919" stroke-width="1.85417" stroke-linecap="round" stroke-linejoin="round"/>
<path d="M29.167 15.834L30.547 10.3123C31.2803 7.38168 32.7959 4.70528 34.932 2.56898L36.667 0.833984" stroke="#191919" stroke-width="1.85417" stroke-linecap="round" stroke-linejoin="round"/>
<path d="M33.722 3.91732L31.667 0.833984" stroke="#191919" stroke-width="1.85417" stroke-linecap="round" stroke-linejoin="round"/>
<path d="M16.1914 6.75307C17.5043 6.07635 18.9743 5.76278 20.4491 5.84483C21.9239 5.92688 23.35 6.40155 24.5797 7.21973C26.473 8.4824 27.8912 10.3404 28.6097 12.4997L29.4047 14.8847" stroke="#191919" stroke-width="1.85417" stroke-linecap="round" stroke-linejoin="round"/>
<path d="M22.7333 6.29898L20 0.833984" stroke="#191919" stroke-width="1.85417" stroke-linecap="round" stroke-linejoin="round"/>
<path d="M32.1899 6.18164L36.6183 9.13497" stroke="#191919" stroke-width="1.85417" stroke-linecap="round" stroke-linejoin="round"/>
</g>
<defs>
<clipPath id="clip0_19_717">
<rect width="40" height="40" fill="white"/>
</clipPath>
</defs>
</svg>
