<svg width="40" height="40" viewBox="0 0 40 40" fill="none" xmlns="http://www.w3.org/2000/svg">
<g clip-path="url(#clip0_19_857)">
<path d="M10 14.2168C10 17.7535 11.4049 21.1453 13.9057 23.6461C16.4065 26.1469 19.7983 27.5518 23.335 27.5518C26.8717 27.5518 30.2635 26.1469 32.7643 23.6461C35.2651 21.1453 36.67 17.7535 36.67 14.2168C36.67 10.6802 35.2651 7.28836 32.7643 4.78757C30.2635 2.28677 26.8717 0.881836 23.335 0.881836C19.7983 0.881836 16.4065 2.28677 13.9057 4.78757C11.4049 7.28836 10 10.6802 10 14.2168Z" fill="#EBF1F2"/>
<path d="M23.3345 19.4069C20.5098 19.4068 17.7581 18.5097 15.4762 16.8448C13.1942 15.18 11.5 12.8334 10.6378 10.1436C9.99717 12.143 9.83777 14.2654 10.1726 16.3381C10.5074 18.4107 11.3269 20.375 12.5644 22.0711C13.802 23.7671 15.4226 25.1469 17.2942 26.0982C19.1659 27.0494 21.2358 27.5452 23.3353 27.5452C25.4348 27.5452 27.5047 27.0494 29.3763 26.0982C31.248 25.1469 32.8686 23.7671 34.1061 22.0711C35.3437 20.375 36.1632 18.4107 36.498 16.3381C36.8328 14.2654 36.6734 12.143 36.0328 10.1436C35.1705 12.8337 33.476 15.1804 31.1937 16.8453C28.9115 18.5102 26.1594 19.4072 23.3345 19.4069Z" fill="black" fill-opacity="0.38"/>
<path d="M1.66732 24.2134H6.66732C6.66732 24.2134 7.50065 24.2134 7.50065 25.0467V36.7134C7.50065 36.7134 7.50065 37.5467 6.66732 37.5467H1.66732C1.66732 37.5467 0.833984 37.5467 0.833984 36.7134V25.0467C0.833984 25.0467 0.833984 24.2134 1.66732 24.2134Z" fill="#EBF1F2"/>
<path d="M6.66732 24.2134H1.66732C1.4463 24.2134 1.23434 24.3012 1.07806 24.4575C0.921782 24.6137 0.833984 24.8257 0.833984 25.0467V31.6667C0.833984 31.4457 0.921782 31.2337 1.07806 31.0775C1.23434 30.9212 1.4463 30.8334 1.66732 30.8334H6.66732C6.88833 30.8334 7.10029 30.9212 7.25657 31.0775C7.41285 31.2337 7.50065 31.4457 7.50065 31.6667V25.0467C7.50065 24.8257 7.41285 24.6137 7.25657 24.4575C7.10029 24.3012 6.88833 24.2134 6.66732 24.2134Z" fill="white"/>
<path d="M1.66732 24.2134H6.66732C6.66732 24.2134 7.50065 24.2134 7.50065 25.0467V36.7134C7.50065 36.7134 7.50065 37.5467 6.66732 37.5467H1.66732C1.66732 37.5467 0.833984 37.5467 0.833984 36.7134V25.0467C0.833984 25.0467 0.833984 24.2134 1.66732 24.2134Z" stroke="#191919" stroke-width="1.66667" stroke-linecap="round" stroke-linejoin="round"/>
<path d="M15.8333 32.5465H25C25.2438 32.5903 25.4943 32.5801 25.7337 32.5166C25.9731 32.453 26.1957 32.3377 26.3857 32.1788C26.5757 32.0198 26.7286 31.8212 26.8334 31.5967C26.9383 31.3723 26.9927 31.1276 26.9927 30.8799C26.9927 30.6322 26.9383 30.3875 26.8334 30.163C26.7286 29.9386 26.5757 29.7399 26.3857 29.581C26.1957 29.4221 25.9731 29.3068 25.7337 29.2432C25.4943 29.1797 25.2438 29.1694 25 29.2132H20C18.0247 27.1747 15.3368 25.9801 12.5 25.8799H7.5V35.0465C25.3817 41.0082 18.7867 41.0699 39.1667 30.8799C38.604 30.1238 37.8228 29.5586 36.9287 29.2605C36.0345 28.9625 35.0705 28.946 34.1667 29.2132L26.7767 31.6665" fill="#EBF1F2"/>
<path d="M15.8333 32.5465H25C25.2438 32.5903 25.4943 32.5801 25.7337 32.5166C25.9731 32.453 26.1957 32.3377 26.3857 32.1788C26.5757 32.0198 26.7286 31.8212 26.8334 31.5967C26.9383 31.3723 26.9927 31.1276 26.9927 30.8799C26.9927 30.6322 26.9383 30.3875 26.8334 30.163C26.7286 29.9386 26.5757 29.7399 26.3857 29.581C26.1957 29.4221 25.9731 29.3068 25.7337 29.2432C25.4943 29.1797 25.2438 29.1694 25 29.2132H20C18.0247 27.1747 15.3368 25.9801 12.5 25.8799H7.5V35.0465C25.3817 41.0082 18.7867 41.0699 39.1667 30.8799C38.604 30.1238 37.8228 29.5586 36.9287 29.2605C36.0345 28.9625 35.0705 28.946 34.1667 29.2132L26.7767 31.6665" stroke="#191919" stroke-width="1.66667" stroke-linecap="round" stroke-linejoin="round"/>
<path d="M33.1838 5.23346C33.0225 6.11795 32.6821 6.96011 32.1834 7.70818C31.6847 8.45625 31.0382 9.09442 30.2838 9.58346C27.9671 9.00013 25.6505 10.7335 26.2338 10.7335C26.8171 10.7335 27.3838 13.0501 27.3838 13.0501C27.9671 13.6335 29.1338 13.0501 29.1338 13.0501C30.5838 14.5001 26.8171 17.1168 26.8171 17.7001C26.8171 18.2835 28.2671 18.5668 27.3838 19.4335C26.8952 19.9368 26.3041 20.329 25.6505 20.5835C25.6505 23.4835 22.7505 23.4835 22.1838 23.4835C21.6171 23.4835 20.4338 21.1668 20.4338 20.5835C20.4338 20.0001 21.0171 19.4335 21.0171 18.8501C21.0171 18.2668 19.8505 17.1168 19.8505 17.1168C19.8505 14.8001 18.1171 15.3668 16.3838 15.3668C14.6505 15.3668 14.6338 13.0501 14.6338 13.0501C14.6338 13.0501 14.6338 9.00013 17.5338 8.4168C20.4338 7.83346 20.4338 9.00013 20.4338 9.00013C21.6005 10.1501 23.9171 9.00013 25.0671 9.00013C25.0671 9.00013 25.6505 4.93346 24.5005 5.5168C23.3505 6.10013 22.3005 5.65013 22.1838 4.3668C22.0005 2.55013 27.2338 1.4668 27.2338 1.4668C29.5223 2.15885 31.5792 3.46098 33.1838 5.23346Z" fill="#EBF1F2"/>
<path d="M23.3336 19.407C22.5335 19.4034 21.7353 19.3281 20.9486 19.182C20.8019 19.6536 20.4336 20.1236 20.4336 20.5836C20.4336 21.167 21.6003 23.4836 22.1836 23.4836C22.7669 23.4836 25.6503 23.4836 25.6503 20.5836C26.3039 20.3292 26.895 19.9369 27.3836 19.4336C27.6936 19.1286 27.7169 18.8953 27.6069 18.6953C26.231 19.1648 24.7874 19.4052 23.3336 19.407Z" fill="black" fill-opacity="0.38"/>
<path d="M33.1838 5.23346C33.0225 6.11795 32.6821 6.96011 32.1834 7.70818C31.6847 8.45625 31.0382 9.09442 30.2838 9.58346C27.9671 9.00013 25.6505 10.7335 26.2338 10.7335C26.8171 10.7335 27.3838 13.0501 27.3838 13.0501C27.9671 13.6335 29.1338 13.0501 29.1338 13.0501C30.5838 14.5001 26.8171 17.1168 26.8171 17.7001C26.8171 18.2835 28.2671 18.5668 27.3838 19.4335C26.8952 19.9368 26.3041 20.329 25.6505 20.5835C25.6505 23.4835 22.7505 23.4835 22.1838 23.4835C21.6171 23.4835 20.4338 21.1668 20.4338 20.5835C20.4338 20.0001 21.0171 19.4335 21.0171 18.8501C21.0171 18.2668 19.8505 17.1168 19.8505 17.1168C19.8505 14.8001 18.1171 15.3668 16.3838 15.3668C14.6505 15.3668 14.6338 13.0501 14.6338 13.0501C14.6338 13.0501 14.6338 9.00013 17.5338 8.4168C20.4338 7.83346 20.4338 9.00013 20.4338 9.00013C21.6005 10.1501 23.9171 9.00013 25.0671 9.00013C25.0671 9.00013 25.6505 4.93346 24.5005 5.5168C23.3505 6.10013 22.3005 5.65013 22.1838 4.3668C22.0005 2.55013 27.2338 1.4668 27.2338 1.4668C29.5223 2.15885 31.5792 3.46098 33.1838 5.23346Z" stroke="#191919" stroke-width="1.66667" stroke-linecap="round" stroke-linejoin="round"/>
<path d="M11.4205 20.2066C10.2542 17.8865 9.7908 15.2764 10.0871 12.6967C10.3834 10.117 11.4265 7.67991 13.0884 5.68469C14.7503 3.68948 16.9586 2.22295 19.4423 1.46516C21.9259 0.707371 24.5768 0.691298 27.0695 1.41892C29.5621 2.14653 31.7881 3.58617 33.4741 5.56109C35.16 7.53601 36.2326 9.96025 36.5602 12.5362C36.8877 15.1121 36.456 17.7277 35.3179 20.0617C34.1799 22.3957 32.3851 24.3466 30.1538 25.6749" stroke="#191919" stroke-width="1.66667" stroke-linecap="round" stroke-linejoin="round"/>
</g>
<defs>
<clipPath id="clip0_19_857">
<rect width="40" height="40" fill="white"/>
</clipPath>
</defs>
</svg>
