<svg width="40" height="40" viewBox="0 0 40 40" fill="none" xmlns="http://www.w3.org/2000/svg">
<g clip-path="url(#clip0_19_872)">
<path d="M30.416 17.085C30.416 18.0795 30.8111 19.0333 31.5144 19.7366C32.2176 20.4399 33.1715 20.835 34.166 20.835C35.1606 20.835 36.1144 20.4399 36.8177 19.7366C37.5209 19.0333 37.916 18.0795 37.916 17.085C37.916 16.0904 37.5209 15.1366 36.8177 14.4333C36.1144 13.73 35.1606 13.335 34.166 13.335C33.1715 13.335 32.2176 13.73 31.5144 14.4333C30.8111 15.1366 30.416 16.0904 30.416 17.085Z" fill="#EBF1F2" stroke="#191919" stroke-width="1.66667" stroke-linecap="round" stroke-linejoin="round"/>
<path d="M34.166 22.5C32.8399 22.5 31.5682 23.0268 30.6305 23.9645C29.6928 24.9021 29.166 26.1739 29.166 27.5V31.6667H31.666L32.4993 39.1667H35.8327L36.666 31.6667H39.166V27.5C39.166 26.1739 38.6392 24.9021 37.7015 23.9645C36.7639 23.0268 35.4921 22.5 34.166 22.5Z" fill="black" fill-opacity="0.38" stroke="#191919" stroke-width="1.66667" stroke-linecap="round" stroke-linejoin="round"/>
<path d="M2.08398 17.085C2.08398 17.5774 2.18098 18.0651 2.36944 18.52C2.55789 18.975 2.83411 19.3884 3.18233 19.7366C3.53055 20.0848 3.94395 20.3611 4.39892 20.5495C4.85389 20.738 5.34153 20.835 5.83398 20.835C6.32644 20.835 6.81408 20.738 7.26905 20.5495C7.72402 20.3611 8.13741 20.0848 8.48563 19.7366C8.83385 19.3884 9.11008 18.975 9.29853 18.52C9.48699 18.0651 9.58398 17.5774 9.58398 17.085C9.58398 16.5925 9.48699 16.1049 9.29853 15.6499C9.11008 15.1949 8.83385 14.7815 8.48563 14.4333C8.13741 14.0851 7.72402 13.8089 7.26905 13.6204C6.81408 13.432 6.32644 13.335 5.83398 13.335C5.34153 13.335 4.85389 13.432 4.39892 13.6204C3.94395 13.8089 3.53055 14.0851 3.18233 14.4333C2.83411 14.7815 2.55789 15.1949 2.36944 15.6499C2.18098 16.1049 2.08398 16.5925 2.08398 17.085Z" fill="#EBF1F2" stroke="#191919" stroke-width="1.66667" stroke-linecap="round" stroke-linejoin="round"/>
<path d="M5.83398 22.5C4.5079 22.5 3.23613 23.0268 2.29845 23.9645C1.36077 24.9021 0.833984 26.1739 0.833984 27.5V31.6667H3.33398L4.16732 39.1667H7.50065L8.33398 31.6667H10.834V27.5C10.834 26.1739 10.3072 24.9021 9.36952 23.9645C8.43184 23.0268 7.16007 22.5 5.83398 22.5Z" fill="black" fill-opacity="0.38" stroke="#191919" stroke-width="1.66667" stroke-linecap="round" stroke-linejoin="round"/>
<path d="M15.416 13.7493C15.416 14.9649 15.8989 16.1307 16.7584 16.9903C17.618 17.8498 18.7838 18.3327 19.9993 18.3327C21.2149 18.3327 22.3807 17.8498 23.2403 16.9903C24.0998 16.1307 24.5827 14.9649 24.5827 13.7493C24.5827 12.5338 24.0998 11.368 23.2403 10.5084C22.3807 9.6489 21.2149 9.16602 19.9993 9.16602C18.7838 9.16602 17.618 9.6489 16.7584 10.5084C15.8989 11.368 15.416 12.5338 15.416 13.7493Z" fill="#EBF1F2" stroke="#191919" stroke-width="1.66667" stroke-linecap="round" stroke-linejoin="round"/>
<path d="M25.8327 25.8333C25.8327 24.2862 25.2181 22.8025 24.1241 21.7085C23.0302 20.6146 21.5464 20 19.9993 20C18.4523 20 16.9685 20.6146 15.8746 21.7085C14.7806 22.8025 14.166 24.2862 14.166 25.8333V30.8333H16.8043L17.4993 39.1667H22.4993L23.1943 30.8333H25.8327V25.8333Z" fill="black" fill-opacity="0.38" stroke="#191919" stroke-width="1.66667" stroke-linecap="round" stroke-linejoin="round"/>
<path d="M0.833984 10.8331L19.229 1.02143C19.4672 0.897012 19.7319 0.832031 20.0007 0.832031C20.2694 0.832031 20.5341 0.897012 20.7723 1.02143L39.1673 10.8331" stroke="#191919" stroke-width="1.66667" stroke-linecap="round" stroke-linejoin="round"/>
</g>
<defs>
<clipPath id="clip0_19_872">
<rect width="40" height="40" fill="white"/>
</clipPath>
</defs>
</svg>
