<svg width="40" height="40" viewBox="0 0 40 40" fill="none" xmlns="http://www.w3.org/2000/svg">
<path d="M33.0553 3.54732C33.0553 3.24166 32.9713 2.94189 32.8123 2.68079C32.6534 2.4197 32.4257 2.20734 32.1542 2.06694C31.8827 1.92654 31.5778 1.86351 31.2729 1.88474C30.968 1.90597 30.6748 2.01065 30.4253 2.18732C29.1689 3.06429 28.1448 4.23392 27.4416 5.5952C26.7383 6.95647 26.3769 8.46848 26.3887 10.0007C26.3839 7.96544 25.7369 5.98365 24.5398 4.3377C23.3428 2.69174 21.6567 1.4656 19.722 0.833984C17.7873 1.4656 16.1013 2.69174 14.9042 4.3377C13.7071 5.98365 13.0601 7.96544 13.0553 10.0007C13.0646 8.47046 12.7024 6.96087 11.9999 5.60144C11.2974 4.242 10.2755 3.07331 9.02201 2.19565C8.77268 2.01813 8.47928 1.9127 8.17399 1.89091C7.8687 1.86912 7.5633 1.93182 7.29129 2.07213C7.01928 2.21244 6.79116 2.42494 6.63194 2.68633C6.47272 2.94773 6.38855 3.24792 6.38867 3.55398V14.1673C6.38867 17.7035 7.79343 21.0949 10.2939 23.5954C12.7944 26.0959 16.1858 27.5007 19.722 27.5007C23.2582 27.5007 26.6496 26.0959 29.1501 23.5954C31.6506 21.0949 33.0553 17.7035 33.0553 14.1673V3.54732Z" fill="#EBF1F2"/>
<path d="M19.722 19.9993C16.1858 19.9993 12.7944 18.5946 10.2939 16.0941C7.79343 13.5936 6.38867 10.2022 6.38867 6.66602V14.166C6.38867 17.7022 7.79343 21.0936 10.2939 23.5941C12.7944 26.0946 16.1858 27.4993 19.722 27.4993C23.2582 27.4993 26.6496 26.0946 29.1501 23.5941C31.6506 21.0936 33.0553 17.7022 33.0553 14.166V6.66602C33.0553 10.2022 31.6506 13.5936 29.1501 16.0941C26.6496 18.5946 23.2582 19.9993 19.722 19.9993Z" fill="black" fill-opacity="0.38"/>
<path d="M33.0553 3.54732C33.0553 3.24166 32.9713 2.94189 32.8123 2.68079C32.6534 2.4197 32.4257 2.20734 32.1542 2.06694C31.8827 1.92654 31.5778 1.86351 31.2729 1.88474C30.968 1.90597 30.6748 2.01065 30.4253 2.18732C29.1689 3.06429 28.1448 4.23392 27.4416 5.5952C26.7383 6.95647 26.3769 8.46848 26.3887 10.0007C26.3839 7.96544 25.7369 5.98365 24.5398 4.3377C23.3428 2.69174 21.6567 1.4656 19.722 0.833984C17.7873 1.4656 16.1013 2.69174 14.9042 4.3377C13.7071 5.98365 13.0601 7.96544 13.0553 10.0007C13.0646 8.47046 12.7024 6.96087 11.9999 5.60144C11.2974 4.242 10.2755 3.07331 9.02201 2.19565C8.77268 2.01813 8.47928 1.9127 8.17399 1.89091C7.8687 1.86912 7.5633 1.93182 7.29129 2.07213C7.01928 2.21244 6.79116 2.42494 6.63194 2.68633C6.47272 2.94773 6.38855 3.24792 6.38867 3.55398V14.1673C6.38867 17.7035 7.79343 21.0949 10.2939 23.5954C12.7944 26.0959 16.1858 27.5007 19.722 27.5007C23.2582 27.5007 26.6496 26.0959 29.1501 23.5954C31.6506 21.0949 33.0553 17.7035 33.0553 14.1673V3.54732Z" stroke="#191919" stroke-width="1.66667" stroke-linecap="round" stroke-linejoin="round"/>
<path d="M13.0547 10V13.3333" stroke="#191919" stroke-width="1.66667" stroke-linecap="round" stroke-linejoin="round"/>
<path d="M26.3887 10V13.3333" stroke="#191919" stroke-width="1.66667" stroke-linecap="round" stroke-linejoin="round"/>
<path d="M19.7217 27.5V39.1667" stroke="#191919" stroke-width="1.66667" stroke-linecap="round" stroke-linejoin="round"/>
<path d="M12.2217 30.834C12.8686 30.834 13.5065 30.9846 14.0851 31.2739C14.6637 31.5632 15.1669 31.9832 15.555 32.5007L19.7217 39.1673H12.2217C11.5749 39.1673 10.9369 39.0167 10.3583 38.7274C9.77976 38.4381 9.27649 38.0181 8.88838 37.5007L6.76171 33.2457C6.63477 32.9916 6.57485 32.7094 6.58763 32.4257C6.6004 32.142 6.68546 31.8662 6.83472 31.6246C6.98399 31.383 7.19251 31.1836 7.4405 31.0452C7.68849 30.9068 7.96773 30.8341 8.25172 30.834H12.2217Z" fill="#EBF1F2"/>
<path d="M19.7218 39.1664H12.2218C11.5749 39.1664 10.9369 39.0158 10.3584 38.7265C9.7798 38.4372 9.27653 38.0172 8.88842 37.4997L6.76175 33.2447C6.63474 32.9906 6.5748 32.7082 6.58764 32.4243C6.60047 32.1405 6.68565 31.8647 6.83508 31.623L19.7218 39.1664Z" fill="black" fill-opacity="0.38"/>
<path d="M12.2217 30.834C12.8686 30.834 13.5065 30.9846 14.0851 31.2739C14.6637 31.5632 15.1669 31.9832 15.555 32.5007L19.7217 39.1673H12.2217C11.5749 39.1673 10.9369 39.0167 10.3583 38.7274C9.77976 38.4381 9.27649 38.0181 8.88838 37.5007L6.76171 33.2457C6.63477 32.9916 6.57485 32.7094 6.58763 32.4257C6.6004 32.142 6.68546 31.8662 6.83472 31.6246C6.98399 31.383 7.19251 31.1836 7.4405 31.0452C7.68849 30.9068 7.96773 30.8341 8.25172 30.834H12.2217Z" stroke="#191919" stroke-width="1.66667" stroke-linecap="round" stroke-linejoin="round"/>
<path d="M27.2217 30.834C26.5748 30.834 25.9369 30.9846 25.3583 31.2739C24.7797 31.5632 24.2765 31.9832 23.8883 32.5007L19.7217 39.1673H27.2217C27.8685 39.1673 28.5065 39.0167 29.0851 38.7274C29.6636 38.4381 30.1669 38.0181 30.555 37.5007L32.6833 33.2457C32.8104 32.9915 32.8703 32.7091 32.8574 32.4252C32.8446 32.1414 32.7594 31.8656 32.6099 31.6239C32.4604 31.3823 32.2517 31.1829 32.0035 31.0446C31.7553 30.9064 31.4758 30.8339 31.1917 30.834H27.2217Z" fill="#EBF1F2"/>
<path d="M19.7217 39.1664H27.2217C27.8685 39.1664 28.5065 39.0158 29.0851 38.7265C29.6636 38.4372 30.1669 38.0172 30.555 37.4997L32.6833 33.2447C32.8104 32.9906 32.8703 32.7082 32.8575 32.4243C32.8446 32.1405 32.7594 31.8647 32.61 31.623L19.7217 39.1664Z" fill="black" fill-opacity="0.38"/>
<path d="M27.2217 30.834C26.5748 30.834 25.9369 30.9846 25.3583 31.2739C24.7797 31.5632 24.2765 31.9832 23.8883 32.5007L19.7217 39.1673H27.2217C27.8685 39.1673 28.5065 39.0167 29.0851 38.7274C29.6636 38.4381 30.1669 38.0181 30.555 37.5007L32.6833 33.2457C32.8104 32.9915 32.8703 32.7091 32.8574 32.4252C32.8446 32.1414 32.7594 31.8656 32.6099 31.6239C32.4604 31.3823 32.2517 31.1829 32.0035 31.0446C31.7553 30.9064 31.4758 30.8339 31.1917 30.834H27.2217Z" stroke="#191919" stroke-width="1.66667" stroke-linecap="round" stroke-linejoin="round"/>
</svg>
