<svg width="40" height="40" viewBox="0 0 40 40" fill="none" xmlns="http://www.w3.org/2000/svg">
<path d="M20.0005 2.0332L33.8839 15.9165V36.3332C33.8839 37.2352 33.1525 37.9665 32.2505 37.9665H7.75052C6.84852 37.9665 6.11719 37.2352 6.11719 36.3332V15.9165L20.0005 2.0332Z" fill="#EBF1F2"/>
<path d="M19.4224 7.51137C19.7414 7.19154 20.2597 7.19154 20.5787 7.51137L33.8839 20.8165V15.9165L20.0005 2.0332L6.11719 15.9165V20.8165L19.4224 7.51137Z" fill="black" fill-opacity="0.38"/>
<path d="M6.11719 15.917V36.3337C6.11719 37.2357 6.84852 37.967 7.75052 37.967H32.2505C33.1525 37.967 33.8839 37.2357 33.8839 36.3337V15.917" stroke="#191919" stroke-width="1.66667" stroke-linecap="round" stroke-linejoin="round"/>
<path d="M1.2168 20.817L20.0001 2.03369L38.7835 20.817" stroke="#191919" stroke-width="1.66667" stroke-linecap="round" stroke-linejoin="round"/>
<path d="M16.7329 24.8999H23.2663C24.1683 24.8999 24.8996 25.6312 24.8996 26.5332V37.9666H15.0996V26.5332C15.0996 25.6312 15.8309 24.8999 16.7329 24.8999Z" fill="black" fill-opacity="0.38"/>
<path d="M16.7334 15.0996C16.7334 17.6143 19.4556 19.186 21.6334 17.9286C22.6441 17.3451 23.2667 16.2666 23.2667 15.0996C23.2667 12.585 20.5446 11.0133 18.3667 12.2706C17.3561 12.8541 16.7334 13.9326 16.7334 15.0996Z" fill="black" fill-opacity="0.38"/>
<path d="M17.6907 17.4091C15.9437 15.6005 16.8099 12.5788 19.2499 11.9701C20.3429 11.6976 21.4994 12.0075 22.3097 12.7901L17.6907 17.4091Z" fill="#EBF1F2"/>
<path d="M16.7334 15.0996C16.7334 17.6143 19.4556 19.186 21.6334 17.9286C22.6441 17.3451 23.2667 16.2666 23.2667 15.0996C23.2667 12.585 20.5446 11.0133 18.3667 12.2706C17.3561 12.8541 16.7334 13.9326 16.7334 15.0996Z" stroke="#191919" stroke-width="1.66667" stroke-linecap="round" stroke-linejoin="round"/>
<path d="M15.2009 28.1666H24.7968H24.8979V26.5332C24.8979 25.6312 24.1668 24.8999 23.2646 24.8999H16.7329C15.8309 24.8999 15.0996 25.6312 15.0996 26.5332V28.1666H15.2009Z" fill="black" fill-opacity="0.38"/>
<path d="M16.7329 24.8999H23.2663C24.1683 24.8999 24.8996 25.6312 24.8996 26.5332V37.9666H15.0996V26.5332C15.0996 25.6312 15.8309 24.8999 16.7329 24.8999Z" stroke="#191919" stroke-width="1.66667" stroke-linecap="round" stroke-linejoin="round"/>
</svg>
