<svg width="80" height="80" viewBox="0 0 80 80" fill="none" xmlns="http://www.w3.org/2000/svg">
<path d="M11.2887 69.8142C11.5317 71.6388 12.6564 72.9608 13.9654 72.9608H25.7907C27.0871 72.9608 28.2277 71.6388 28.4674 69.8142L31.5331 52.0488C31.9547 50.2242 31.0504 48.3515 29.3587 47.5475C29.1951 47.5025 29.0261 47.4798 28.8564 47.4795H10.9031C9.39607 47.4795 8.17773 49.2068 8.17773 51.3358C8.17807 51.5742 8.19307 51.8125 8.22307 52.0488L11.2887 69.8142Z" stroke="#191919" stroke-width="3.33333" stroke-linecap="round" stroke-linejoin="round"/>
<path d="M24.2349 47.4895C24.7082 42.7742 25.3075 36.3772 25.8552 33.1785C26.6289 28.5482 28.1305 24.0692 30.3045 19.9082" stroke="#191919" stroke-width="3.33333" stroke-linecap="round" stroke-linejoin="round"/>
<path d="M22.4595 16.1846C18.1751 23.7969 19.5848 29.6819 24.0245 32.1806C28.4641 34.6793 34.2358 32.8286 38.5201 25.2389C42.8045 17.6493 42.6811 9.4506 38.2478 6.9486C33.8145 4.4466 26.7435 8.58527 22.4595 16.1846Z" stroke="#191919" stroke-width="3.33333" stroke-linecap="round" stroke-linejoin="round"/>
<path d="M17.7605 35.5475C17.4372 35.8205 17.0889 36.0625 16.7202 36.2701C13.1229 38.2955 8.44021 36.8048 4.96287 30.6411C1.48554 24.4775 1.58954 17.8371 5.18654 15.8085C8.25587 14.6945 11.6945 15.5981 13.8199 18.0771" stroke="#191919" stroke-width="3.33333" stroke-linecap="round" stroke-linejoin="round"/>
<path d="M35.8593 64.3574C37.5806 65.7407 39.724 66.4934 41.9323 66.4897H67.8576C73.227 66.4897 77.5796 62.137 77.5796 56.7677V47.0457C77.5796 43.3037 73.5286 40.9647 70.288 42.8357C68.784 43.704 67.8576 45.309 67.8576 47.0457V51.9067C67.8576 53.249 66.7693 54.337 65.427 54.337H44.3626C43.0206 54.337 41.9323 53.249 41.9323 51.9067V47.0457C41.8793 43.2117 37.6956 40.873 34.402 42.836C34.1466 42.988 33.9056 43.1627 33.6816 43.3577" stroke="#191919" stroke-width="3.33333" stroke-linecap="round" stroke-linejoin="round"/>
<path d="M41.9321 66.4897V73.7811" stroke="#191919" stroke-width="3.33333" stroke-linecap="round" stroke-linejoin="round"/>
<path d="M66.2373 66.4897V73.7811" stroke="#191919" stroke-width="3.33333" stroke-linecap="round" stroke-linejoin="round"/>
<path d="M37.0034 42.1846C37.0034 34.1306 43.5324 27.6016 51.5864 27.6016H58.1487C66.2027 27.6016 72.7318 34.1306 72.7318 42.1846" stroke="#191919" stroke-width="3.33333" stroke-linecap="round" stroke-linejoin="round"/>
<path d="M12.4556 28.7686C15.1282 34.8159 17.2846 41.0786 18.9012 47.4899" stroke="#191919" stroke-width="3.33333" stroke-linecap="round" stroke-linejoin="round"/>
</svg>
