<svg width="40" height="40" viewBox="0 0 40 40" fill="none" xmlns="http://www.w3.org/2000/svg">
<g clip-path="url(#clip0_19_826)">
<path d="M17.4997 39.1667V20.0001C17.4997 19.7791 17.4119 19.5671 17.2556 19.4108C17.0993 19.2545 16.8874 19.1667 16.6663 19.1667H14.9997C14.7787 19.1667 14.5667 19.0789 14.4104 18.9227C14.2541 18.7664 14.1663 18.5544 14.1663 18.3334V13.3334C14.1663 13.1124 14.2541 12.9004 14.4104 12.7441C14.5667 12.5879 14.7787 12.5001 14.9997 12.5001H16.6663C16.8874 12.5001 17.0993 12.4123 17.2556 12.256C17.4119 12.0997 17.4997 11.8878 17.4997 11.6667V4.15674L6.25301 10.5834C6.12546 10.6563 6.01944 10.7615 5.94568 10.8886C5.87193 11.0156 5.83306 11.1599 5.83301 11.3067V39.1667H17.4997Z" fill="black" fill-opacity="0.38"/>
<path d="M14.4513 18.9601C14.3619 18.8819 14.2903 18.7856 14.2411 18.6775C14.192 18.5695 14.1665 18.4521 14.1663 18.3334V13.3334C14.1663 13.1124 14.2541 12.9004 14.4104 12.7441C14.5667 12.5879 14.7787 12.5001 14.9997 12.5001H16.6663C16.8874 12.5001 17.0993 12.4123 17.2556 12.256C17.4119 12.0997 17.4997 11.8878 17.4997 11.6667V4.15674L6.25301 10.5834C6.12546 10.6563 6.01944 10.7615 5.94568 10.8886C5.87193 11.0156 5.83306 11.1599 5.83301 11.3067V27.5801L14.4513 18.9601Z" fill="#EBF1F2"/>
<path d="M22.5 39.1666V29.9899C22.5 29.7689 22.5878 29.5569 22.7441 29.4007C22.9004 29.2444 23.1123 29.1566 23.3333 29.1566H25.8333V21.6666C25.8333 21.4456 25.7455 21.2336 25.5893 21.0773C25.433 20.921 25.221 20.8332 25 20.8332H23.3333C23.1123 20.8332 22.9004 20.7454 22.7441 20.5892C22.5878 20.4329 22.5 20.2209 22.5 19.9999V10.8232L33.8183 18.9166C33.9262 18.9938 34.0141 19.0956 34.0746 19.2136C34.1352 19.3315 34.1668 19.4623 34.1667 19.5949V39.1666H22.5Z" fill="black" fill-opacity="0.38"/>
<path d="M23.3333 29.1566C23.1123 29.1566 22.9004 29.2444 22.7441 29.4007C22.5878 29.5569 22.5 29.7689 22.5 29.9899V32.8849L34.1667 21.2182V19.5949C34.1668 19.4623 34.1352 19.3315 34.0746 19.2136C34.0141 19.0956 33.9262 18.9938 33.8183 18.9166L22.5 10.8232V19.9999C22.5 20.2209 22.5878 20.4329 22.7441 20.5892C22.9004 20.7454 23.1123 20.8332 23.3333 20.8332H25C25.221 20.8332 25.433 20.921 25.5893 21.0773C25.7455 21.2336 25.8333 21.4456 25.8333 21.6666V29.1566H23.3333Z" fill="#EBF1F2"/>
<path d="M0.833008 39.1665H39.1663" stroke="#191919" stroke-width="1.66667" stroke-linecap="round" stroke-linejoin="round"/>
<path d="M35 9.16632C35.8176 9.16894 36.6178 8.93098 37.3011 8.48209C37.9844 8.03319 38.5206 7.3932 38.8428 6.64181C39.165 5.89043 39.259 5.06085 39.1132 4.25641C38.9673 3.45196 38.5881 2.7082 38.0226 2.11774C37.4571 1.52729 36.7304 1.11623 35.933 0.935777C35.1356 0.75532 34.3028 0.813435 33.5382 1.10288C32.7736 1.39233 32.111 1.90032 31.633 2.56359C31.155 3.22685 30.8827 4.01608 30.85 4.83299C30.5509 4.55574 30.1886 4.35586 29.7945 4.25078C29.4005 4.14571 28.9867 4.13862 28.5893 4.23015C28.1919 4.32168 27.8229 4.50904 27.5145 4.77589C27.2061 5.04274 26.9677 5.38098 26.82 5.76112C26.6724 6.14126 26.6199 6.55176 26.6673 6.95681C26.7147 7.36186 26.8604 7.74918 27.0919 8.08498C27.3233 8.42078 27.6333 8.69487 27.995 8.88335C28.3566 9.07183 28.7589 9.16898 29.1667 9.16632H35Z" fill="white"/>
<path d="M35 6.66638H29.1667C28.7279 6.667 28.2967 6.55212 27.9163 6.33329C27.536 6.11446 27.22 5.79938 27 5.41971C26.7813 5.79979 26.6665 6.2307 26.667 6.66919C26.6675 7.10767 26.7833 7.53832 27.0028 7.91791C27.2223 8.2975 27.5378 8.61267 27.9176 8.8318C28.2974 9.05094 28.7282 9.16632 29.1667 9.16638H35C35.6544 9.1665 36.2997 9.01247 36.8835 8.71677C37.4673 8.42107 37.9732 7.99201 38.3603 7.46436C38.7474 6.9367 39.0048 6.32528 39.1116 5.67962C39.2184 5.03397 39.1716 4.37225 38.975 3.74805C38.7093 4.59421 38.1805 5.33352 37.4656 5.85839C36.7507 6.38326 35.8869 6.66632 35 6.66638Z" fill="#EBF1F2"/>
<path d="M35 9.16632C35.8176 9.16894 36.6178 8.93098 37.3011 8.48209C37.9844 8.03319 38.5206 7.3932 38.8428 6.64181C39.165 5.89043 39.259 5.06085 39.1132 4.25641C38.9673 3.45196 38.5881 2.7082 38.0226 2.11774C37.4571 1.52729 36.7304 1.11623 35.933 0.935777C35.1356 0.75532 34.3028 0.813435 33.5382 1.10288C32.7736 1.39233 32.111 1.90032 31.633 2.56359C31.155 3.22685 30.8827 4.01608 30.85 4.83299C30.5509 4.55574 30.1886 4.35586 29.7945 4.25078C29.4005 4.14571 28.9867 4.13862 28.5893 4.23015C28.1919 4.32168 27.8229 4.50904 27.5145 4.77589C27.2061 5.04274 26.9677 5.38098 26.82 5.76112C26.6724 6.14126 26.6199 6.55176 26.6673 6.95681C26.7147 7.36186 26.8604 7.74918 27.0919 8.08498C27.3233 8.42078 27.6333 8.69487 27.995 8.88335C28.3566 9.07183 28.7589 9.16898 29.1667 9.16632H35Z" stroke="#191919" stroke-width="1.66667" stroke-linecap="round" stroke-linejoin="round"/>
<path d="M17.4997 39.1667V20.0001C17.4997 19.7791 17.4119 19.5671 17.2556 19.4108C17.0993 19.2545 16.8874 19.1667 16.6663 19.1667H14.9997C14.7787 19.1667 14.5667 19.0789 14.4104 18.9227C14.2541 18.7664 14.1663 18.5544 14.1663 18.3334V13.3334C14.1663 13.1124 14.2541 12.9004 14.4104 12.7441C14.5667 12.5879 14.7787 12.5001 14.9997 12.5001H16.6663C16.8874 12.5001 17.0993 12.4123 17.2556 12.256C17.4119 12.0997 17.4997 11.8878 17.4997 11.6667V4.15674L6.25301 10.5834C6.12546 10.6563 6.01944 10.7615 5.94568 10.8886C5.87193 11.0156 5.83306 11.1599 5.83301 11.3067V39.1667" stroke="#191919" stroke-width="1.66667" stroke-linecap="round" stroke-linejoin="round"/>
<path d="M17.5 4.15634V0.833008" stroke="#191919" stroke-width="1.66667" stroke-linecap="round" stroke-linejoin="round"/>
<path d="M22.5 39.1666V29.9899C22.5 29.7689 22.5878 29.5569 22.7441 29.4007C22.9004 29.2444 23.1123 29.1566 23.3333 29.1566H25.8333V21.6666C25.8333 21.4456 25.7455 21.2336 25.5893 21.0773C25.433 20.921 25.221 20.8332 25 20.8332H23.3333C23.1123 20.8332 22.9004 20.7454 22.7441 20.5892C22.5878 20.4329 22.5 20.2209 22.5 19.9999V10.8232L33.8183 18.9166C33.9262 18.9938 34.0141 19.0956 34.0746 19.2136C34.1352 19.3315 34.1668 19.4623 34.1667 19.5949V39.1666" stroke="#191919" stroke-width="1.66667" stroke-linecap="round" stroke-linejoin="round"/>
<path d="M22.5 10.8232V5.82324" stroke="#191919" stroke-width="1.66667" stroke-linecap="round" stroke-linejoin="round"/>
<path d="M29.167 22.5V25.8333" stroke="#191919" stroke-width="1.66667" stroke-linecap="round" stroke-linejoin="round"/>
<path d="M10.833 13.3232V18.3232" stroke="#191919" stroke-width="1.66667" stroke-linecap="round" stroke-linejoin="round"/>
<path d="M14.167 24.1567H17.5003" stroke="#191919" stroke-width="1.66667" stroke-linecap="round" stroke-linejoin="round"/>
<path d="M14.167 29.1567H17.5003" stroke="#191919" stroke-width="1.66667" stroke-linecap="round" stroke-linejoin="round"/>
<path d="M14.167 34.1567H17.5003" stroke="#191919" stroke-width="1.66667" stroke-linecap="round" stroke-linejoin="round"/>
<path d="M22.5 34.167H25.8333" stroke="#191919" stroke-width="1.66667" stroke-linecap="round" stroke-linejoin="round"/>
</g>
<defs>
<clipPath id="clip0_19_826">
<rect width="40" height="40" fill="white"/>
</clipPath>
</defs>
</svg>
