<svg width="40" height="40" viewBox="0 0 40 40" fill="none" xmlns="http://www.w3.org/2000/svg">
<g clip-path="url(#clip0_19_962)">
<path d="M27.8727 15.239C28.1783 14.3584 28.3338 13.4327 28.3327 12.5007V9.16732C28.3327 6.95718 27.4547 4.83756 25.8919 3.27476C24.3291 1.71196 22.2095 0.833984 19.9994 0.833984C17.7892 0.833984 15.6696 1.71196 14.1068 3.27476C12.544 4.83756 11.666 6.95718 11.666 9.16732V12.5007C11.6644 13.3744 11.8011 14.2429 12.071 15.074L19.9994 17.6673L27.8727 15.239Z" fill="#EBF1F2"/>
<path d="M4.16602 27.4998V33.7148C4.16609 34.0831 4.28813 34.441 4.51306 34.7325C4.738 35.0241 5.05317 35.233 5.40935 35.3265L19.9993 39.1665V20.8332L6.33268 16.5182C6.08318 16.4397 5.81871 16.4211 5.56066 16.4638C5.30262 16.5064 5.05824 16.6093 4.8473 16.7639C4.63636 16.9185 4.46477 17.1206 4.34642 17.3539C4.22806 17.5871 4.16626 17.845 4.16602 18.1065V20.8332" fill="white"/>
<path d="M35.8333 27.4998V33.7148C35.8333 34.0831 35.7112 34.441 35.4863 34.7325C35.2613 35.0241 34.9462 35.233 34.59 35.3265L20 39.1665V20.8332L33.6667 16.5182C33.9162 16.4397 34.1806 16.4211 34.4387 16.4638C34.6967 16.5064 34.9411 16.6093 35.1521 16.7639C35.363 16.9185 35.5346 17.1206 35.6529 17.3539C35.7713 17.5871 35.8331 17.845 35.8333 18.1065V20.8332" fill="#EBF1F2"/>
<path d="M28.3327 9.16732V10.0007C20.8327 10.0007 18.3327 6.66732 18.3327 6.66732C14.9993 10.834 11.666 10.0007 11.666 10.0007V9.16732C11.666 6.95718 12.544 4.83756 14.1068 3.27476C15.6696 1.71196 17.7892 0.833984 19.9993 0.833984C22.2095 0.833984 24.3291 1.71196 25.8919 3.27476C27.4547 4.83756 28.3327 6.95718 28.3327 9.16732Z" fill="black" fill-opacity="0.38"/>
<path d="M28.3329 10V12.5C28.3379 13.4314 28.18 14.3564 27.8662 15.2333" stroke="#191919" stroke-width="1.66667" stroke-linecap="round" stroke-linejoin="round"/>
<path d="M11.666 10V12.5C11.6645 13.3766 11.7995 14.2482 12.066 15.0833" stroke="#191919" stroke-width="1.66667" stroke-linecap="round" stroke-linejoin="round"/>
<path d="M15.8327 12.084C15.9151 12.084 15.9956 12.1084 16.0642 12.1542C16.1327 12.2 16.1861 12.2651 16.2176 12.3412C16.2492 12.4173 16.2574 12.5011 16.2413 12.5819C16.2253 12.6628 16.1856 12.737 16.1273 12.7953C16.069 12.8536 15.9948 12.8932 15.914 12.9093C15.8331 12.9254 15.7494 12.9171 15.6732 12.8856C15.5971 12.8541 15.532 12.8007 15.4862 12.7321C15.4405 12.6636 15.416 12.5831 15.416 12.5007C15.416 12.3901 15.4599 12.2842 15.5381 12.206C15.6162 12.1279 15.7222 12.084 15.8327 12.084Z" stroke="#191919" stroke-width="1.66667" stroke-linecap="round" stroke-linejoin="round"/>
<path d="M24.1667 12.084C24.2491 12.084 24.3296 12.1084 24.3982 12.1542C24.4667 12.2 24.5201 12.2651 24.5516 12.3412C24.5832 12.4173 24.5914 12.5011 24.5753 12.5819C24.5593 12.6628 24.5196 12.737 24.4613 12.7953C24.403 12.8536 24.3288 12.8932 24.248 12.9093C24.1671 12.9254 24.0834 12.9171 24.0072 12.8856C23.9311 12.8541 23.866 12.8007 23.8202 12.7321C23.7744 12.6636 23.75 12.5831 23.75 12.5007C23.75 12.3901 23.7939 12.2842 23.872 12.206C23.9502 12.1279 24.0562 12.084 24.1667 12.084Z" stroke="#191919" stroke-width="1.66667" stroke-linecap="round" stroke-linejoin="round"/>
<path d="M0.833984 24.1673C0.833984 26.6673 3.16732 27.5007 5.00065 27.5007C5.22166 27.5007 5.43363 27.4129 5.58991 27.2566C5.74619 27.1003 5.83398 26.8883 5.83398 26.6673V21.6673C5.83398 21.4463 5.74619 21.2343 5.58991 21.0781C5.43363 20.9218 5.22166 20.834 5.00065 20.834C3.16732 20.834 0.833984 21.6673 0.833984 24.1673Z" fill="#EBF1F2"/>
<path d="M39.166 24.1673C39.166 26.6673 36.841 27.5007 34.9993 27.5007C34.7783 27.5007 34.5664 27.4129 34.4101 27.2566C34.2538 27.1003 34.166 26.8883 34.166 26.6673V21.6673C34.166 21.4463 34.2538 21.2343 34.4101 21.0781C34.5664 20.9218 34.7783 20.834 34.9993 20.834C36.841 20.834 39.166 21.6673 39.166 24.1673Z" fill="#EBF1F2"/>
<path d="M4.16602 27.4998V33.7148C4.16609 34.0831 4.28813 34.441 4.51306 34.7325C4.738 35.0241 5.05317 35.233 5.40935 35.3265L19.9993 39.1665V20.8332L6.33268 16.5182C6.08318 16.4397 5.81871 16.4211 5.56066 16.4638C5.30262 16.5064 5.05824 16.6093 4.8473 16.7639C4.63636 16.9185 4.46477 17.1206 4.34642 17.3539C4.22806 17.5871 4.16626 17.845 4.16602 18.1065V20.8332" stroke="#191919" stroke-width="1.66667" stroke-linecap="round" stroke-linejoin="round"/>
<path d="M35.8333 27.4998V33.7148C35.8333 34.0831 35.7112 34.441 35.4863 34.7325C35.2613 35.0241 34.9462 35.233 34.59 35.3265L20 39.1665V20.8332L33.6667 16.5182C33.9162 16.4397 34.1806 16.4211 34.4387 16.4638C34.6967 16.5064 34.9411 16.6093 35.1521 16.7639C35.363 16.9185 35.5346 17.1206 35.6529 17.3539C35.7713 17.5871 35.8331 17.845 35.8333 18.1065V20.8332" stroke="#191919" stroke-width="1.66667" stroke-linecap="round" stroke-linejoin="round"/>
<path d="M28.3327 9.16732V10.0007C20.8327 10.0007 18.3327 6.66732 18.3327 6.66732C14.9993 10.834 11.666 10.0007 11.666 10.0007V9.16732C11.666 6.95718 12.544 4.83756 14.1068 3.27476C15.6696 1.71196 17.7892 0.833984 19.9993 0.833984C22.2095 0.833984 24.3291 1.71196 25.8919 3.27476C27.4547 4.83756 28.3327 6.95718 28.3327 9.16732Z" stroke="#191919" stroke-width="1.66667" stroke-linecap="round" stroke-linejoin="round"/>
<path d="M0.833984 24.1673C0.833984 26.6673 3.16732 27.5007 5.00065 27.5007C5.22166 27.5007 5.43363 27.4129 5.58991 27.2566C5.74619 27.1003 5.83398 26.8883 5.83398 26.6673V21.6673C5.83398 21.4463 5.74619 21.2343 5.58991 21.0781C5.43363 20.9218 5.22166 20.834 5.00065 20.834C3.16732 20.834 0.833984 21.6673 0.833984 24.1673Z" stroke="#191919" stroke-width="1.66667" stroke-linecap="round" stroke-linejoin="round"/>
<path d="M39.166 24.1673C39.166 26.6673 36.841 27.5007 34.9993 27.5007C34.7783 27.5007 34.5664 27.4129 34.4101 27.2566C34.2538 27.1003 34.166 26.8883 34.166 26.6673V21.6673C34.166 21.4463 34.2538 21.2343 34.4101 21.0781C34.5664 20.9218 34.7783 20.834 34.9993 20.834C36.841 20.834 39.166 21.6673 39.166 24.1673Z" stroke="#191919" stroke-width="1.66667" stroke-linecap="round" stroke-linejoin="round"/>
</g>
<defs>
<clipPath id="clip0_19_962">
<rect width="40" height="40" fill="white"/>
</clipPath>
</defs>
</svg>
