<svg width="40" height="40" viewBox="0 0 40 40" fill="none" xmlns="http://www.w3.org/2000/svg">
<g clip-path="url(#clip0_19_845)">
<path d="M2.5 39.1667L4 33.1317C4.04532 32.95 4.15056 32.7888 4.29873 32.6742C4.4469 32.5596 4.62936 32.4982 4.81667 32.5H35.1833C35.3692 32.5001 35.5497 32.5623 35.6962 32.6767C35.8427 32.7912 35.9467 32.9513 35.9917 33.1317L37.5 39.1667" fill="black" fill-opacity="0.38"/>
<path d="M2.5 39.1667L4 33.1317C4.04532 32.95 4.15056 32.7888 4.29873 32.6742C4.4469 32.5596 4.62936 32.4982 4.81667 32.5H35.1833C35.3692 32.5001 35.5497 32.5623 35.6962 32.6767C35.8427 32.7912 35.9467 32.9513 35.9917 33.1317L37.5 39.1667" stroke="#191919" stroke-width="1.66667" stroke-linecap="round" stroke-linejoin="round"/>
<path d="M5.83398 17.5H9.16732V32.5H5.83398V17.5Z" fill="white" stroke="#191919" stroke-width="1.66667" stroke-linecap="round" stroke-linejoin="round"/>
<path d="M14.166 17.5H17.4993V32.5H14.166V17.5Z" fill="white" stroke="#191919" stroke-width="1.66667" stroke-linecap="round" stroke-linejoin="round"/>
<path d="M22.5 17.5H25.8333V32.5H22.5V17.5Z" fill="white" stroke="#191919" stroke-width="1.66667" stroke-linecap="round" stroke-linejoin="round"/>
<path d="M30.834 17.5H34.1673V32.5H30.834V17.5Z" fill="white" stroke="#191919" stroke-width="1.66667" stroke-linecap="round" stroke-linejoin="round"/>
<path d="M35 12.4997C35 7.89634 31.6667 0.833008 20 0.833008C8.33333 0.833008 5 7.89634 5 12.4997H35Z" fill="#EBF1F2"/>
<path d="M19.9994 6.66634C27.1761 6.66634 31.9161 8.72134 34.9461 11.5147C34.4994 6.95467 30.8627 0.833008 19.9994 0.833008C9.13607 0.833008 5.4994 6.95467 5.05273 11.5147C8.08273 8.72134 12.8227 6.66634 19.9994 6.66634Z" fill="white"/>
<path d="M35 12.4997C35 7.89634 31.6667 0.833008 20 0.833008C8.33333 0.833008 5 7.89634 5 12.4997H35Z" stroke="#191919" stroke-width="1.66667" stroke-linecap="round" stroke-linejoin="round"/>
<path d="M37.135 13.5967C37.1767 13.4713 37.1881 13.3378 37.1681 13.2073C37.1481 13.0767 37.0973 12.9527 37.02 12.8456C36.9427 12.7385 36.841 12.6513 36.7233 12.5912C36.6057 12.5311 36.4754 12.4998 36.3433 12.5H3.65663C3.52452 12.4998 3.39426 12.5311 3.2766 12.5912C3.15894 12.6513 3.05725 12.7385 2.97992 12.8456C2.9026 12.9527 2.85185 13.0767 2.83186 13.2073C2.81187 13.3378 2.82322 13.4713 2.86497 13.5967L3.97663 16.93C4.03188 17.0959 4.13789 17.2402 4.27967 17.3425C4.42145 17.4448 4.5918 17.4999 4.76663 17.5H35.2333C35.4081 17.4999 35.5785 17.4448 35.7203 17.3425C35.862 17.2402 35.9681 17.0959 36.0233 16.93L37.135 13.5967Z" fill="#EBF1F2" stroke="#191919" stroke-width="1.66667" stroke-linecap="round" stroke-linejoin="round"/>
<path d="M0.833984 39.167H39.1673" stroke="#191919" stroke-width="1.66667" stroke-linecap="round" stroke-linejoin="round"/>
<path d="M3.33398 35.833H36.6673" stroke="#191919" stroke-width="1.66667" stroke-linecap="round" stroke-linejoin="round"/>
</g>
<defs>
<clipPath id="clip0_19_845">
<rect width="40" height="40" fill="white"/>
</clipPath>
</defs>
</svg>
