<svg width="80" height="80" viewBox="0 0 80 80" fill="none" xmlns="http://www.w3.org/2000/svg">
<g clip-path="url(#clip0_19_982)">
<path d="M18.3335 16.6668C18.3335 18.877 19.2115 20.9966 20.7743 22.5594C22.3371 24.1222 24.4567 25.0002 26.6668 25.0002C28.877 25.0002 30.9966 24.1222 32.5594 22.5594C34.1222 20.9966 35.0002 18.877 35.0002 16.6668C35.0002 14.4567 34.1222 12.3371 32.5594 10.7743C30.9966 9.21147 28.877 8.3335 26.6668 8.3335C24.4567 8.3335 22.3371 9.21147 20.7743 10.7743C19.2115 12.3371 18.3335 14.4567 18.3335 16.6668Z" fill="#EBF1F2"/>
<path d="M60 13.3332C60 15.1013 60.7024 16.797 61.9526 18.0472C63.2029 19.2975 64.8986 19.9998 66.6667 19.9998C68.4348 19.9998 70.1305 19.2975 71.3807 18.0472C72.631 16.797 73.3333 15.1013 73.3333 13.3332C73.3333 11.5651 72.631 9.86937 71.3807 8.61913C70.1305 7.36888 68.4348 6.6665 66.6667 6.6665C64.8986 6.6665 63.2029 7.36888 61.9526 8.61913C60.7024 9.86937 60 11.5651 60 13.3332Z" fill="#EBF1F2"/>
<path d="M58.3335 46.6667C58.3335 48.4348 59.0359 50.1305 60.2861 51.3807C61.5364 52.631 63.2321 53.3333 65.0002 53.3333C66.7683 53.3333 68.464 52.631 69.7142 51.3807C70.9644 50.1305 71.6668 48.4348 71.6668 46.6667C71.6668 44.8986 70.9644 43.2029 69.7142 41.9526C68.464 40.7024 66.7683 40 65.0002 40C63.2321 40 61.5364 40.7024 60.2861 41.9526C59.0359 43.2029 58.3335 44.8986 58.3335 46.6667Z" fill="#EBF1F2"/>
<path d="M54.9448 40.7208C58.0488 37.6234 62.2548 35.8838 66.6398 35.8838C71.0249 35.8838 75.2309 37.6234 78.3348 40.7208" stroke="#191919" stroke-width="3.33333" stroke-linecap="round" stroke-linejoin="round"/>
<path d="M39.2251 25.0598C40.7617 23.5241 41.9807 21.7007 42.8123 19.6938C43.644 17.6868 44.0721 15.5356 44.0721 13.3632C44.0721 11.1907 43.644 9.03955 42.8123 7.03259C41.9807 5.02563 40.7617 3.2022 39.2251 1.6665" stroke="#191919" stroke-width="3.33333" stroke-linecap="round" stroke-linejoin="round"/>
<path d="M60.25 27.4968L71.9467 23.6035" stroke="#191919" stroke-width="3.33333" stroke-linecap="round" stroke-linejoin="round"/>
<path d="M52.4546 19.7063L56.3546 8.00635" stroke="#191919" stroke-width="3.33333" stroke-linecap="round" stroke-linejoin="round"/>
<path d="M26.5498 15.9033C26.7708 15.9033 26.9828 15.9911 27.1391 16.1474C27.2953 16.3037 27.3831 16.5156 27.3831 16.7367" stroke="#191919" stroke-width="3.33333" stroke-linecap="round" stroke-linejoin="round"/>
<path d="M25.7168 16.7367C25.7168 16.5156 25.8046 16.3037 25.9609 16.1474C26.1172 15.9911 26.3291 15.9033 26.5501 15.9033" stroke="#191919" stroke-width="3.33333" stroke-linecap="round" stroke-linejoin="round"/>
<path d="M26.5501 17.5701C26.3291 17.5701 26.1172 17.4824 25.9609 17.3261C25.8046 17.1698 25.7168 16.9578 25.7168 16.7368" stroke="#191919" stroke-width="3.33333" stroke-linecap="round" stroke-linejoin="round"/>
<path d="M27.3831 16.7368C27.3831 16.9578 27.2953 17.1698 27.1391 17.3261C26.9828 17.4824 26.7708 17.5701 26.5498 17.5701" stroke="#191919" stroke-width="3.33333" stroke-linecap="round" stroke-linejoin="round"/>
<path d="M51.5498 25.9033C51.7708 25.9033 51.9828 25.9911 52.1391 26.1474C52.2953 26.3037 52.3831 26.5156 52.3831 26.7367" stroke="#191919" stroke-width="3.33333" stroke-linecap="round" stroke-linejoin="round"/>
<path d="M50.7168 26.7367C50.7168 26.5156 50.8046 26.3037 50.9609 26.1474C51.1172 25.9911 51.3291 25.9033 51.5501 25.9033" stroke="#191919" stroke-width="3.33333" stroke-linecap="round" stroke-linejoin="round"/>
<path d="M51.5501 27.5701C51.3291 27.5701 51.1172 27.4824 50.9609 27.3261C50.8046 27.1698 50.7168 26.9578 50.7168 26.7368" stroke="#191919" stroke-width="3.33333" stroke-linecap="round" stroke-linejoin="round"/>
<path d="M52.3831 26.7368C52.3831 26.9578 52.2953 27.1698 52.1391 27.3261C51.9828 27.4824 51.7708 27.5701 51.5498 27.5701" stroke="#191919" stroke-width="3.33333" stroke-linecap="round" stroke-linejoin="round"/>
<path d="M64.8833 45.9033C65.1043 45.9033 65.3163 45.9911 65.4726 46.1474C65.6288 46.3037 65.7166 46.5156 65.7166 46.7367" stroke="#191919" stroke-width="3.33333" stroke-linecap="round" stroke-linejoin="round"/>
<path d="M64.0498 46.7367C64.0498 46.5156 64.1376 46.3037 64.2939 46.1474C64.4502 45.9911 64.6621 45.9033 64.8831 45.9033" stroke="#191919" stroke-width="3.33333" stroke-linecap="round" stroke-linejoin="round"/>
<path d="M64.8831 47.5701C64.6621 47.5701 64.4502 47.4824 64.2939 47.3261C64.1376 47.1698 64.0498 46.9578 64.0498 46.7368" stroke="#191919" stroke-width="3.33333" stroke-linecap="round" stroke-linejoin="round"/>
<path d="M65.7166 46.7368C65.7166 46.9578 65.6288 47.1698 65.4726 47.3261C65.3163 47.4824 65.1043 47.5701 64.8833 47.5701" stroke="#191919" stroke-width="3.33333" stroke-linecap="round" stroke-linejoin="round"/>
<path d="M66.5498 12.5698C66.7708 12.5698 66.9828 12.6576 67.1391 12.8139C67.2953 12.9702 67.3831 13.1821 67.3831 13.4032" stroke="#191919" stroke-width="3.33333" stroke-linecap="round" stroke-linejoin="round"/>
<path d="M65.7168 13.4032C65.7168 13.1821 65.8046 12.9702 65.9609 12.8139C66.1172 12.6576 66.3291 12.5698 66.5501 12.5698" stroke="#191919" stroke-width="3.33333" stroke-linecap="round" stroke-linejoin="round"/>
<path d="M66.5501 14.2367C66.3291 14.2367 66.1172 14.1489 65.9609 13.9926C65.8046 13.8363 65.7168 13.6243 65.7168 13.4033" stroke="#191919" stroke-width="3.33333" stroke-linecap="round" stroke-linejoin="round"/>
<path d="M67.3831 13.4033C67.3831 13.6243 67.2953 13.8363 67.1391 13.9926C66.9828 14.1489 66.7708 14.2367 66.5498 14.2367" stroke="#191919" stroke-width="3.33333" stroke-linecap="round" stroke-linejoin="round"/>
<path d="M50.4819 55.2499L8.27853 77.8033C7.42816 78.2579 6.45408 78.427 5.50023 78.2854C4.54638 78.1439 3.66338 77.6992 2.98171 77.0172C2.30003 76.3351 1.85586 75.4519 1.71483 74.498C1.57379 73.544 1.74338 72.5701 2.19853 71.7199L24.7485 29.5166L50.4819 55.2499Z" fill="black" fill-opacity="0.38"/>
<path d="M37.6183 42.3833L24.7516 29.5166L2.20164 71.7199C1.74714 72.5713 1.57949 73.5466 1.72362 74.5009C1.86776 75.4552 2.31597 76.3374 3.00164 77.0166L37.6183 42.3833Z" fill="#EBF1F2"/>
<path d="M50.4819 55.2499L8.27853 77.8033C7.42816 78.2579 6.45408 78.427 5.50023 78.2854C4.54638 78.1439 3.66338 77.6992 2.98171 77.0172C2.30003 76.3351 1.85586 75.4519 1.71483 74.498C1.57379 73.544 1.74338 72.5701 2.19853 71.7199L24.7485 29.5166" stroke="#191919" stroke-width="3.33333" stroke-linecap="round" stroke-linejoin="round"/>
<path d="M32.4461 47.5535C34.1485 49.2559 35.9866 50.7892 37.8556 52.0659C39.7245 53.3426 41.5877 54.3376 43.3386 54.9942C45.0896 55.6508 46.6941 55.9562 48.0605 55.8927C49.4269 55.8293 50.5284 55.3984 51.3023 54.6245C52.0761 53.8507 52.507 52.7492 52.5705 51.3828C52.6339 50.0164 52.3286 48.4119 51.672 46.6609C51.0154 44.91 50.0203 43.0468 48.7436 41.1779C47.4669 39.3089 45.9336 37.4708 44.2312 35.7684C42.5288 34.0659 40.6906 32.5326 38.8217 31.2559C36.9527 29.9792 35.0896 28.9842 33.3386 28.3276C29.8024 27.0015 26.9378 27.1345 25.375 28.6973C23.8122 30.2601 23.6792 33.1247 25.0053 36.6609C26.3314 40.1971 29.0079 44.1153 32.4461 47.5535Z" fill="black" fill-opacity="0.38" stroke="#191919" stroke-width="3.33333" stroke-linecap="round" stroke-linejoin="round"/>
</g>
<defs>
<clipPath id="clip0_19_982">
<rect width="80" height="80" fill="white"/>
</clipPath>
</defs>
</svg>
