<svg width="40" height="40" viewBox="0 0 40 40" fill="none" xmlns="http://www.w3.org/2000/svg">
<path d="M2.50065 25.8333L3.73232 33.8333C3.85191 34.6216 4.2501 35.3409 4.85464 35.8608C5.45917 36.3806 6.23001 36.6665 7.02732 36.6667H32.974C33.7713 36.6665 34.5421 36.3806 35.1467 35.8608C35.7512 35.3409 36.1494 34.6216 36.269 33.8333L37.5007 25.8333C37.9427 25.8333 38.3666 25.6577 38.6792 25.3452C38.9917 25.0326 39.1673 24.6087 39.1673 24.1667V13.3333C39.1673 12.4493 38.8161 11.6014 38.191 10.9763C37.5659 10.3512 36.718 10 35.834 10H4.16732C3.28326 10 2.43542 10.3512 1.8103 10.9763C1.18517 11.6014 0.833984 12.4493 0.833984 13.3333V24.1667C0.833984 24.6087 1.00958 25.0326 1.32214 25.3452C1.6347 25.6577 2.05862 25.8333 2.50065 25.8333Z" fill="black" fill-opacity="0.38"/>
<path d="M35.834 10H4.16732C3.28326 10 2.43542 10.3512 1.8103 10.9763C1.18517 11.6014 0.833984 12.4493 0.833984 13.3333V19.1667C0.833984 18.2826 1.18517 17.4348 1.8103 16.8096C2.43542 16.1845 3.28326 15.8333 4.16732 15.8333H35.834C36.718 15.8333 37.5659 16.1845 38.191 16.8096C38.8161 17.4348 39.1673 18.2826 39.1673 19.1667V13.3333C39.1673 12.4493 38.8161 11.6014 38.191 10.9763C37.5659 10.3512 36.718 10 35.834 10Z" fill="#EBF1F2"/>
<path d="M2.50065 25.8333L3.73232 33.8333C3.85191 34.6216 4.2501 35.3409 4.85464 35.8608C5.45917 36.3806 6.23001 36.6665 7.02732 36.6667H32.974C33.7713 36.6665 34.5421 36.3806 35.1467 35.8608C35.7512 35.3409 36.1494 34.6216 36.269 33.8333L37.5007 25.8333C37.9427 25.8333 38.3666 25.6577 38.6792 25.3452C38.9917 25.0326 39.1673 24.6087 39.1673 24.1667V13.3333C39.1673 12.4493 38.8161 11.6014 38.191 10.9763C37.5659 10.3512 36.718 10 35.834 10H4.16732C3.28326 10 2.43542 10.3512 1.8103 10.9763C1.18517 11.6014 0.833984 12.4493 0.833984 13.3333V24.1667C0.833984 24.6087 1.00958 25.0326 1.32214 25.3452C1.6347 25.6577 2.05862 25.8333 2.50065 25.8333Z" stroke="#191919" stroke-width="1.66667" stroke-linecap="round" stroke-linejoin="round"/>
<path d="M27.5 10.0007H12.5V8.33398C12.5 7.0079 13.0268 5.73613 13.9645 4.79845C14.9021 3.86077 16.1739 3.33398 17.5 3.33398H22.5C23.8261 3.33398 25.0979 3.86077 26.0355 4.79845C26.9732 5.73613 27.5 7.0079 27.5 8.33398V10.0007Z" stroke="#191919" stroke-width="1.66667" stroke-linecap="round" stroke-linejoin="round"/>
<path d="M2.5 25.834H16.6667" stroke="#191919" stroke-width="1.66667" stroke-linecap="round" stroke-linejoin="round"/>
<path d="M23.334 25.834H37.5007" stroke="#191919" stroke-width="1.66667" stroke-linecap="round" stroke-linejoin="round"/>
<path d="M16.666 25.8327C16.666 26.9378 17.0172 27.9976 17.6423 28.779C18.2674 29.5604 19.1153 29.9993 19.9993 29.9993C20.8834 29.9993 21.7312 29.5604 22.3564 28.779C22.9815 27.9976 23.3327 26.9378 23.3327 25.8327C23.3327 24.7276 22.9815 23.6678 22.3564 22.8864C21.7312 22.105 20.8834 21.666 19.9993 21.666C19.1153 21.666 18.2674 22.105 17.6423 22.8864C17.0172 23.6678 16.666 24.7276 16.666 25.8327Z" fill="#EBF1F2"/>
<path d="M20.0003 26.5474C19.3062 26.501 18.6433 26.2419 18.1017 25.8053C17.5602 25.3687 17.1663 24.7758 16.9736 24.1074C16.7713 24.6601 16.6675 25.2439 16.6669 25.8324C16.569 26.8246 16.8627 27.8157 17.4855 28.5942C18.1083 29.3727 19.0108 29.8769 20.0003 29.9991C20.9897 29.8769 21.8922 29.3727 22.515 28.5942C23.1378 27.8157 23.4316 26.8246 23.3336 25.8324C23.333 25.2439 23.2292 24.6601 23.0269 24.1074C22.8343 24.7758 22.4404 25.3687 21.8988 25.8053C21.3573 26.2419 20.6944 26.501 20.0003 26.5474Z" fill="black" fill-opacity="0.38"/>
<path d="M16.666 25.8327C16.666 26.9378 17.0172 27.9976 17.6423 28.779C18.2674 29.5604 19.1153 29.9993 19.9993 29.9993C20.8834 29.9993 21.7312 29.5604 22.3564 28.779C22.9815 27.9976 23.3327 26.9378 23.3327 25.8327C23.3327 24.7276 22.9815 23.6678 22.3564 22.8864C21.7312 22.105 20.8834 21.666 19.9993 21.666C19.1153 21.666 18.2674 22.105 17.6423 22.8864C17.0172 23.6678 16.666 24.7276 16.666 25.8327Z" stroke="#191919" stroke-width="1.66667" stroke-linecap="round" stroke-linejoin="round"/>
</svg>
