<svg width="40" height="40" viewBox="0 0 40 40" fill="none" xmlns="http://www.w3.org/2000/svg">
<g clip-path="url(#clip0_19_705)">
<path d="M6.66699 39.1668H37.5003C37.9424 39.1668 38.3663 38.9912 38.6788 38.6787C38.9914 38.3661 39.167 37.9422 39.167 37.5002V7.50016C39.167 7.05814 38.9914 6.63421 38.6788 6.32165C38.3663 6.00909 37.9424 5.8335 37.5003 5.8335H6.66699V39.1668Z" fill="black" fill-opacity="0.38"/>
<path d="M0.833008 33.3335V6.66683C0.833008 5.11973 1.44759 3.636 2.54155 2.54204C3.63551 1.44808 5.11925 0.833496 6.66634 0.833496C8.21344 0.833496 9.69717 1.44808 10.7911 2.54204C11.8851 3.636 12.4997 5.11973 12.4997 6.66683V33.3335H0.833008Z" fill="black" fill-opacity="0.38"/>
<path d="M6.66634 0.833496C5.11925 0.833496 3.63551 1.44808 2.54155 2.54204C1.44759 3.636 0.833008 5.11973 0.833008 6.66683V33.3335H6.66634V0.833496Z" fill="#EBF1F2"/>
<path d="M24.4398 14.6767C24.5932 14.5375 24.7928 14.4604 24.9998 14.4604C25.2069 14.4604 25.4065 14.5375 25.5598 14.6767L30.8332 19.47V28.3333C30.8332 28.5543 30.7454 28.7663 30.5891 28.9226C30.4328 29.0789 30.2209 29.1667 29.9998 29.1667H19.9998C19.7788 29.1667 19.5669 29.0789 19.4106 28.9226C19.2543 28.7663 19.1665 28.5543 19.1665 28.3333V19.47L24.4398 14.6767Z" fill="white"/>
<path d="M22.5 29.1667V25C22.5 24.337 22.7634 23.7011 23.2322 23.2322C23.7011 22.7634 24.337 22.5 25 22.5C25.663 22.5 26.2989 22.7634 26.7678 23.2322C27.2366 23.7011 27.5 24.337 27.5 25V29.1667H22.5Z" fill="black" fill-opacity="0.38" stroke="#191919" stroke-width="1.66667" stroke-linecap="round" stroke-linejoin="round"/>
<path d="M19.167 19.4702V28.3335C19.167 28.5546 19.2548 28.7665 19.4111 28.9228C19.5673 29.0791 19.7793 29.1669 20.0003 29.1669H30.0003C30.2213 29.1669 30.4333 29.0791 30.5896 28.9228C30.7459 28.7665 30.8337 28.5546 30.8337 28.3335V19.4702" stroke="#191919" stroke-width="1.66667" stroke-linecap="round" stroke-linejoin="round"/>
<path d="M15.8335 22.5L24.4402 14.6767C24.5935 14.5375 24.7931 14.4604 25.0002 14.4604C25.2072 14.4604 25.4068 14.5375 25.5602 14.6767L34.1668 22.5" stroke="#191919" stroke-width="1.66667" stroke-linecap="round" stroke-linejoin="round"/>
<path d="M0.833496 33.3333C0.833496 34.8804 1.44808 36.3642 2.54204 37.4581C3.636 38.5521 5.11973 39.1667 6.66683 39.1667C8.21393 39.1667 9.69766 38.5521 10.7916 37.4581C11.8856 36.3642 12.5002 34.8804 12.5002 33.3333C12.5002 31.7862 11.8856 30.3025 10.7916 29.2085C9.69766 28.1146 8.21393 27.5 6.66683 27.5C5.11973 27.5 3.636 28.1146 2.54204 29.2085C1.44808 30.3025 0.833496 31.7862 0.833496 33.3333Z" fill="#EBF1F2" stroke="#191919" stroke-width="1.66667" stroke-linecap="round" stroke-linejoin="round"/>
<path d="M4.16699 33.3335C4.16699 33.9965 4.43038 34.6324 4.89923 35.1013C5.36807 35.5701 6.00395 35.8335 6.66699 35.8335C7.33003 35.8335 7.96592 35.5701 8.43476 35.1013C8.9036 34.6324 9.16699 33.9965 9.16699 33.3335C9.16699 32.6705 8.9036 32.0346 8.43476 31.5657C7.96592 31.0969 7.33003 30.8335 6.66699 30.8335C6.00395 30.8335 5.36807 31.0969 4.89923 31.5657C4.43038 32.0346 4.16699 32.6705 4.16699 33.3335Z" fill="black" fill-opacity="0.38" stroke="#191919" stroke-width="1.66667" stroke-linecap="round" stroke-linejoin="round"/>
<path d="M0.833008 33.3335V6.66683C0.833008 5.11973 1.44759 3.636 2.54155 2.54204C3.63551 1.44808 5.11925 0.833496 6.66634 0.833496C8.21344 0.833496 9.69717 1.44808 10.7911 2.54204C11.8851 3.636 12.4997 5.11973 12.4997 6.66683V33.3335" stroke="#191919" stroke-width="1.66667" stroke-linecap="round" stroke-linejoin="round"/>
<path d="M6.66699 39.1668H37.5003C37.9424 39.1668 38.3663 38.9912 38.6788 38.6787C38.9914 38.3661 39.167 37.9422 39.167 37.5002V7.50016C39.167 7.05814 38.9914 6.63421 38.6788 6.32165C38.3663 6.00909 37.9424 5.8335 37.5003 5.8335H16.667" stroke="#191919" stroke-width="1.66667" stroke-linecap="round" stroke-linejoin="round"/>
</g>
<defs>
<clipPath id="clip0_19_705">
<rect width="40" height="40" fill="white"/>
</clipPath>
</defs>
</svg>
