<svg width="40" height="40" viewBox="0 0 40 40" fill="none" xmlns="http://www.w3.org/2000/svg">
<g clip-path="url(#clip0_19_891)">
<path d="M1.66732 24.167H38.334C38.334 24.167 39.1673 24.167 39.1673 25.0003V38.3337C39.1673 38.3337 39.1673 39.167 38.334 39.167H1.66732C1.66732 39.167 0.833984 39.167 0.833984 38.3337V25.0003C0.833984 25.0003 0.833984 24.167 1.66732 24.167Z" fill="black" fill-opacity="0.38"/>
<path d="M39.1673 29.167V25.0003C39.1673 24.7793 39.0795 24.5673 38.9232 24.4111C38.767 24.2548 38.555 24.167 38.334 24.167H1.66732C1.4463 24.167 1.23434 24.2548 1.07806 24.4111C0.921782 24.5673 0.833984 24.7793 0.833984 25.0003V29.167H39.1673Z" fill="#EBF1F2"/>
<path d="M25.834 24.167C25.834 22.8409 26.3608 21.5691 27.2984 20.6315C28.2361 19.6938 29.5079 19.167 30.834 19.167C32.1601 19.167 33.4318 19.6938 34.3695 20.6315C35.3072 21.5691 35.834 22.8409 35.834 24.167H25.834Z" fill="#EBF1F2"/>
<path d="M30.834 19.167C29.5079 19.167 28.2361 19.6938 27.2984 20.6315C26.3608 21.5691 25.834 22.8409 25.834 24.167H30.834V19.167Z" fill="white"/>
<path d="M19.1667 24.1667V23.3333C19.1667 21.1232 18.2887 19.0036 16.7259 17.4408C15.1631 15.878 13.0435 15 10.8333 15C8.6232 15 6.50358 15.878 4.94078 17.4408C3.37797 19.0036 2.5 21.1232 2.5 23.3333V24.1667H19.1667Z" fill="black" fill-opacity="0.38"/>
<path d="M10.8333 15C8.6232 15 6.50358 15.878 4.94078 17.4408C3.37797 19.0036 2.5 21.1232 2.5 23.3333V24.1667H10.8333V15Z" fill="#EBF1F2"/>
<path d="M19.1667 24.1667V23.3333C19.1667 21.1232 18.2887 19.0036 16.7259 17.4408C15.1631 15.878 13.0435 15 10.8333 15C8.6232 15 6.50358 15.878 4.94078 17.4408C3.37797 19.0036 2.5 21.1232 2.5 23.3333V24.1667" stroke="#191919" stroke-width="1.66667" stroke-linecap="round" stroke-linejoin="round"/>
<path d="M4.99939 5.83326C8.80884 4.72159 12.8566 4.72159 16.6661 5.83326C16.6852 6.11071 16.6852 6.38915 16.6661 6.6666C16.6661 8.21369 16.0515 9.69742 14.9575 10.7914C13.8636 11.8853 12.3798 12.4999 10.8327 12.4999C9.28563 12.4999 7.8019 11.8853 6.70794 10.7914C5.61397 9.69742 4.99939 8.21369 4.99939 6.6666C4.99939 6.4366 4.97439 6.05493 4.99939 5.83326Z" fill="#EBF1F2" stroke="#191919" stroke-width="1.66667" stroke-linecap="round" stroke-linejoin="round"/>
<path d="M1.66732 24.167H38.334C38.334 24.167 39.1673 24.167 39.1673 25.0003V38.3337C39.1673 38.3337 39.1673 39.167 38.334 39.167H1.66732C1.66732 39.167 0.833984 39.167 0.833984 38.3337V25.0003C0.833984 25.0003 0.833984 24.167 1.66732 24.167Z" stroke="#191919" stroke-width="1.66667" stroke-linecap="round" stroke-linejoin="round"/>
<path d="M25.834 24.167C25.834 22.8409 26.3608 21.5691 27.2984 20.6315C28.2361 19.6938 29.5079 19.167 30.834 19.167C32.1601 19.167 33.4318 19.6938 34.3695 20.6315C35.3072 21.5691 35.834 22.8409 35.834 24.167H25.834Z" stroke="#191919" stroke-width="1.66667" stroke-linecap="round" stroke-linejoin="round"/>
<path d="M16.6667 5.83301C12.8572 4.72134 8.80944 4.72134 5 5.83301V2.49967C5 2.05765 5.17559 1.63372 5.48816 1.32116C5.80072 1.0086 6.22464 0.833008 6.66667 0.833008H15C15.442 0.833008 15.866 1.0086 16.1785 1.32116C16.4911 1.63372 16.6667 2.05765 16.6667 2.49967V5.83301Z" fill="black" fill-opacity="0.38" stroke="#191919" stroke-width="1.66667" stroke-linecap="round" stroke-linejoin="round"/>
<path d="M11.2493 17.9167C11.2493 17.9991 11.2249 18.0796 11.1791 18.1482C11.1333 18.2167 11.0683 18.2701 10.9921 18.3016C10.916 18.3332 10.8322 18.3414 10.7514 18.3253C10.6706 18.3093 10.5963 18.2696 10.5381 18.2113C10.4798 18.153 10.4401 18.0788 10.424 17.998C10.4079 17.9171 10.4162 17.8334 10.4477 17.7572C10.4793 17.6811 10.5327 17.616 10.6012 17.5702C10.6697 17.5244 10.7503 17.5 10.8327 17.5C10.9432 17.5 11.0492 17.5439 11.1273 17.622C11.2055 17.7002 11.2493 17.8062 11.2493 17.9167Z" stroke="#191919" stroke-width="1.66667" stroke-linecap="round" stroke-linejoin="round"/>
<path d="M11.2493 21.6667C11.2493 21.7491 11.2249 21.8296 11.1791 21.8982C11.1333 21.9667 11.0683 22.0201 10.9921 22.0516C10.916 22.0832 10.8322 22.0914 10.7514 22.0753C10.6706 22.0593 10.5963 22.0196 10.5381 21.9613C10.4798 21.903 10.4401 21.8288 10.424 21.748C10.4079 21.6671 10.4162 21.5834 10.4477 21.5072C10.4793 21.4311 10.5327 21.366 10.6012 21.3202C10.6697 21.2744 10.7503 21.25 10.8327 21.25C10.9432 21.25 11.0492 21.2939 11.1273 21.372C11.2055 21.4502 11.2493 21.5562 11.2493 21.6667Z" stroke="#191919" stroke-width="1.66667" stroke-linecap="round" stroke-linejoin="round"/>
<path d="M29.166 15.833H32.4993" stroke="#191919" stroke-width="1.66667" stroke-linecap="round" stroke-linejoin="round"/>
<path d="M30.834 15.833V19.1663" stroke="#191919" stroke-width="1.66667" stroke-linecap="round" stroke-linejoin="round"/>
<path d="M17.5 35.8337V29.167" stroke="#191919" stroke-width="1.66667" stroke-linecap="round" stroke-linejoin="round"/>
<path d="M24.166 35.8337V29.167" stroke="#191919" stroke-width="1.66667" stroke-linecap="round" stroke-linejoin="round"/>
<path d="M17.5 32.5H24.1667" stroke="#191919" stroke-width="1.66667" stroke-linecap="round" stroke-linejoin="round"/>
</g>
<defs>
<clipPath id="clip0_19_891">
<rect width="40" height="40" fill="white"/>
</clipPath>
</defs>
</svg>
