<svg width="40" height="40" viewBox="0 0 40 40" fill="none" xmlns="http://www.w3.org/2000/svg">
<g clip-path="url(#clip0_19_938)">
<path d="M31.6673 39.1663L28.334 19.1663L26.6673 9.16634L25.0007 0.833008H15.0007L13.334 9.16634L11.6673 19.1663L8.33398 39.1663H31.6673Z" fill="#EBF1F2"/>
<path d="M29.4447 25.833L28.333 19.1663L27.778 15.833H12.2214L11.6664 19.1663L10.5547 25.833H29.4447Z" fill="black" fill-opacity="0.38"/>
<path d="M11.6673 19.167L8.33398 39.167" stroke="#191919" stroke-width="1.66667" stroke-linecap="round" stroke-linejoin="round"/>
<path d="M15.0007 0.833008L13.334 9.16634" stroke="#191919" stroke-width="1.66667" stroke-linecap="round" stroke-linejoin="round"/>
<path d="M28.334 19.167L31.6673 39.167" stroke="#191919" stroke-width="1.66667" stroke-linecap="round" stroke-linejoin="round"/>
<path d="M25 0.833008L26.6667 9.16634" stroke="#191919" stroke-width="1.66667" stroke-linecap="round" stroke-linejoin="round"/>
<path d="M20 32.5V39.1667" stroke="#191919" stroke-width="1.66667" stroke-linecap="round" stroke-linejoin="round"/>
<path d="M20 20.833V25.833" stroke="#191919" stroke-width="1.66667" stroke-linecap="round" stroke-linejoin="round"/>
<path d="M20 0.833008V2.49967" stroke="#191919" stroke-width="1.66667" stroke-linecap="round" stroke-linejoin="round"/>
<path d="M7.38398 16.5303C7.41633 16.3357 7.51666 16.1589 7.66711 16.0314C7.81757 15.9038 8.0084 15.8337 8.20565 15.8337H31.794C31.9912 15.8337 32.1821 15.9038 32.3325 16.0314C32.483 16.1589 32.5833 16.3357 32.6157 16.5303L34.0523 25.137C34.0847 25.3316 34.185 25.5084 34.3354 25.6359C34.4859 25.7635 34.6767 25.8336 34.874 25.8337H38.334C38.555 25.8337 38.767 25.7459 38.9232 25.5896C39.0795 25.4333 39.1673 25.2213 39.1673 25.0003V10.0003C39.1673 9.77931 39.0795 9.56735 38.9232 9.41107C38.767 9.25479 38.555 9.16699 38.334 9.16699H1.66732C1.4463 9.16699 1.23434 9.25479 1.07806 9.41107C0.921782 9.56735 0.833984 9.77931 0.833984 10.0003V25.0003C0.833984 25.2213 0.921782 25.4333 1.07806 25.5896C1.23434 25.7459 1.4463 25.8337 1.66732 25.8337H5.12898C5.32624 25.8336 5.51707 25.7635 5.66752 25.6359C5.81798 25.5084 5.9183 25.3316 5.95065 25.137L7.38398 16.5303Z" fill="black" fill-opacity="0.38"/>
<path d="M39.1673 12.5003V10.0003C39.1673 9.77931 39.0795 9.56735 38.9232 9.41107C38.767 9.25479 38.555 9.16699 38.334 9.16699H1.66732C1.4463 9.16699 1.23434 9.25479 1.07806 9.41107C0.921782 9.56735 0.833984 9.77931 0.833984 10.0003V12.5003H39.1673Z" fill="black" fill-opacity="0.38"/>
<path d="M7.38398 16.5303C7.41633 16.3357 7.51666 16.1589 7.66711 16.0314C7.81757 15.9038 8.0084 15.8337 8.20565 15.8337H31.794C31.9912 15.8337 32.1821 15.9038 32.3325 16.0314C32.483 16.1589 32.5833 16.3357 32.6157 16.5303L34.0523 25.137C34.0847 25.3316 34.185 25.5084 34.3354 25.6359C34.4859 25.7635 34.6767 25.8336 34.874 25.8337H38.334C38.555 25.8337 38.767 25.7459 38.9232 25.5896C39.0795 25.4333 39.1673 25.2213 39.1673 25.0003V10.0003C39.1673 9.77931 39.0795 9.56735 38.9232 9.41107C38.767 9.25479 38.555 9.16699 38.334 9.16699H1.66732C1.4463 9.16699 1.23434 9.25479 1.07806 9.41107C0.921782 9.56735 0.833984 9.77931 0.833984 10.0003V25.0003C0.833984 25.2213 0.921782 25.4333 1.07806 25.5896C1.23434 25.7459 1.4463 25.8337 1.66732 25.8337H5.12898C5.32624 25.8336 5.51707 25.7635 5.66752 25.6359C5.81798 25.5084 5.9183 25.3316 5.95065 25.137L7.38398 16.5303Z" stroke="#191919" stroke-width="1.66667" stroke-linecap="round" stroke-linejoin="round"/>
</g>
<defs>
<clipPath id="clip0_19_938">
<rect width="40" height="40" fill="white"/>
</clipPath>
</defs>
</svg>
