<svg width="40" height="40" viewBox="0 0 40 40" fill="none" xmlns="http://www.w3.org/2000/svg">
<g clip-path="url(#clip0_19_920)">
<path d="M6.17773 9.16602H37.2411C37.4973 9.16596 37.7502 9.22502 37.9799 9.33858C38.2097 9.45215 38.4102 9.61716 38.5658 9.82081C38.7213 10.0245 38.8279 10.2612 38.8771 10.5128C38.9263 10.7643 38.9168 11.0238 38.8494 11.271L35.4277 23.8143C35.1393 24.8726 34.5108 25.8066 33.6392 26.4725C32.7676 27.1384 31.7013 27.4992 30.6044 27.4993H10.0377L6.17773 9.16602Z" fill="#EBF1F2"/>
<path d="M38.0554 9.37891C35.9171 13.9289 31.3354 22.4206 26.9237 22.4206H8.96875L10.0387 27.5006H30.6054C31.7021 27.5005 32.7683 27.14 33.6398 26.4744C34.5114 25.8088 35.14 24.8752 35.4287 23.8172L38.8504 11.2722C38.9483 10.9132 38.9232 10.5317 38.7791 10.1886C38.6351 9.84547 38.3803 9.56043 38.0554 9.37891Z" fill="black" fill-opacity="0.38"/>
<path d="M6.17773 9.16602H37.2411C37.4973 9.16596 37.7502 9.22502 37.9799 9.33858C38.2097 9.45215 38.4102 9.61716 38.5658 9.82081C38.7213 10.0245 38.8279 10.2612 38.8771 10.5128C38.9263 10.7643 38.9168 11.0238 38.8494 11.271L35.4277 23.8143C35.1393 24.8726 34.5108 25.8066 33.6392 26.4725C32.7676 27.1384 31.7013 27.4992 30.6044 27.4993H10.0377L6.17773 9.16602Z" stroke="#191919" stroke-width="1.66667" stroke-linecap="round" stroke-linejoin="round"/>
<path d="M1.08984 0.833984H1.71984C2.48463 0.834024 3.22614 1.09705 3.82 1.57894C4.41387 2.06083 4.82397 2.73227 4.98151 3.48065L10.5332 29.854C10.6907 30.6024 11.1008 31.2738 11.6947 31.7557C12.2886 32.2376 13.0301 32.5006 13.7948 32.5007H32.7565" stroke="#191919" stroke-width="1.66667" stroke-linecap="round" stroke-linejoin="round"/>
<path d="M10.2578 36.666C10.2578 37.3291 10.5212 37.9649 10.99 38.4338C11.4589 38.9026 12.0948 39.166 12.7578 39.166C13.4209 39.166 14.0567 38.9026 14.5256 38.4338C14.9944 37.9649 15.2578 37.3291 15.2578 36.666C15.2578 36.003 14.9944 35.3671 14.5256 34.8982C14.0567 34.4294 13.4209 34.166 12.7578 34.166C12.0948 34.166 11.4589 34.4294 10.99 34.8982C10.5212 35.3671 10.2578 36.003 10.2578 36.666Z" fill="black" fill-opacity="0.38" stroke="#191919" stroke-width="1.66667" stroke-linecap="round" stroke-linejoin="round"/>
<path d="M26.9238 36.666C26.9238 37.3291 27.1872 37.9649 27.6561 38.4338C28.1249 38.9026 28.7608 39.166 29.4238 39.166C30.0869 39.166 30.7228 38.9026 31.1916 38.4338C31.6604 37.9649 31.9238 37.3291 31.9238 36.666C31.9238 36.003 31.6604 35.3671 31.1916 34.8982C30.7228 34.4294 30.0869 34.166 29.4238 34.166C28.7608 34.166 28.1249 34.4294 27.6561 34.8982C27.1872 35.3671 26.9238 36.003 26.9238 36.666Z" fill="black" fill-opacity="0.38" stroke="#191919" stroke-width="1.66667" stroke-linecap="round" stroke-linejoin="round"/>
</g>
<defs>
<clipPath id="clip0_19_920">
<rect width="40" height="40" fill="white"/>
</clipPath>
</defs>
</svg>
