<svg width="40" height="40" viewBox="0 0 40 40" fill="none" xmlns="http://www.w3.org/2000/svg">
<g clip-path="url(#clip0_19_927)">
<path d="M37.6912 25.2666C37.6356 25.4322 37.5295 25.5761 37.3878 25.6781C37.246 25.7801 37.0758 25.8349 36.9012 25.835H3.10117C2.92655 25.8349 2.75635 25.7801 2.61459 25.6781C2.47284 25.5761 2.36671 25.4322 2.31118 25.2666L1.19951 21.9333C1.15743 21.8079 1.14583 21.6742 1.16567 21.5434C1.1855 21.4126 1.23619 21.2884 1.31356 21.181C1.39092 21.0737 1.49273 20.9863 1.61057 20.9261C1.7284 20.866 1.85887 20.8347 1.99118 20.835H38.0112C38.1435 20.8347 38.274 20.866 38.3918 20.9261C38.5096 20.9863 38.6114 21.0737 38.6888 21.181C38.7662 21.2884 38.8169 21.4126 38.8367 21.5434C38.8565 21.6742 38.8449 21.8079 38.8028 21.9333L37.6912 25.2666Z" fill="black" fill-opacity="0.38" stroke="#191919" stroke-width="1.66667" stroke-linecap="round" stroke-linejoin="round"/>
<path d="M5 25.835L2.5 39.1683" stroke="#191919" stroke-width="1.66667" stroke-linecap="round" stroke-linejoin="round"/>
<path d="M35 25.835L37.5 39.1683" stroke="#191919" stroke-width="1.66667" stroke-linecap="round" stroke-linejoin="round"/>
<path d="M18.1318 2.29964C19.0722 1.37468 20.34 0.858776 21.659 0.864302C22.978 0.869828 24.2414 1.39634 25.174 2.32914C26.1066 3.26195 26.6328 4.52547 26.638 5.84449C26.6432 7.16351 26.127 8.43116 25.2018 9.37131L18.1318 2.29964Z" fill="black" fill-opacity="0.38" stroke="#191919" stroke-width="1.66667" stroke-linecap="round" stroke-linejoin="round"/>
<path d="M25.3945 2.5C25.9996 2.5 26.5988 2.61921 27.1578 2.85082C27.7168 3.08243 28.2247 3.42191 28.6525 3.84985C29.0803 4.2778 29.4196 4.78583 29.651 5.34493C29.8824 5.90403 30.0014 6.50324 30.0012 7.10833V17.5" stroke="#191919" stroke-width="1.66667" stroke-linecap="round" stroke-linejoin="round"/>
<path d="M15.8333 15.833H7.5C6.83696 15.833 6.20107 16.0964 5.73223 16.5652C5.26339 17.0341 5 17.67 5 18.333C5 18.996 5.26339 19.6319 5.73223 20.1008C6.20107 20.5696 6.83696 20.833 7.5 20.833H15.8333V15.833Z" fill="black" fill-opacity="0.38" stroke="#191919" stroke-width="1.66667" stroke-linecap="round" stroke-linejoin="round"/>
<path d="M17.5007 10.835H15.834" stroke="#191919" stroke-width="1.66667" stroke-linecap="round" stroke-linejoin="round"/>
<path d="M17.5007 15.835H15.834" stroke="#191919" stroke-width="1.66667" stroke-linecap="round" stroke-linejoin="round"/>
<path d="M15.8333 10.833H7.5C6.83696 10.833 6.20107 11.0964 5.73223 11.5652C5.26339 12.0341 5 12.67 5 13.333C5 13.996 5.26339 14.6319 5.73223 15.1008C6.20107 15.5696 6.83696 15.833 7.5 15.833H15.8333V10.833Z" fill="black" fill-opacity="0.38" stroke="#191919" stroke-width="1.66667" stroke-linecap="round" stroke-linejoin="round"/>
<path d="M33.3327 20.8333H26.666C26.666 19.9493 27.0172 19.1014 27.6423 18.4763C28.2674 17.8512 29.1153 17.5 29.9993 17.5C30.8834 17.5 31.7312 17.8512 32.3564 18.4763C32.9815 19.1014 33.3327 19.9493 33.3327 20.8333Z" fill="black" fill-opacity="0.38" stroke="#191919" stroke-width="1.66667" stroke-linecap="round" stroke-linejoin="round"/>
</g>
<defs>
<clipPath id="clip0_19_927">
<rect width="40" height="40" fill="white"/>
</clipPath>
</defs>
</svg>
