<svg width="40" height="40" viewBox="0 0 40 40" fill="none" xmlns="http://www.w3.org/2000/svg">
<g clip-path="url(#clip0_19_759)">
<path d="M1.18994 39.0852L8.35494 39.1002L30.6766 16.9936L26.9783 13.2686L1.18994 39.0852Z" fill="black" fill-opacity="0.38"/>
<path d="M31.9482 3.55826L29.6898 1.29993C29.3899 1.00121 28.9839 0.833496 28.5607 0.833496C28.1374 0.833496 27.7314 1.00121 27.4315 1.29993L20.6565 8.07492C20.508 8.22308 20.3902 8.39908 20.3098 8.59284C20.2294 8.7866 20.188 8.99432 20.188 9.20409C20.188 9.41387 20.2294 9.62158 20.3098 9.81534C20.3902 10.0091 20.508 10.1851 20.6565 10.3333L22.9148 12.5916C23.2147 12.8903 23.6207 13.058 24.044 13.058C24.4673 13.058 24.8733 12.8903 25.1732 12.5916L31.9498 5.81659C32.2479 5.51628 32.415 5.11022 32.4147 4.68708C32.4144 4.26395 32.2467 3.85813 31.9482 3.55826Z" fill="#EBF1F2"/>
<path d="M36.755 24.4098C38.1724 22.2576 38.8049 19.6827 38.5459 17.1188C38.287 14.5548 37.1525 12.1584 35.3334 10.3331L31.9467 6.9431C31.7967 6.79349 31.5935 6.70947 31.3817 6.70947C31.1699 6.70947 30.9667 6.79349 30.8167 6.9431L26.3 11.4598C26.1504 11.6097 26.0664 11.8129 26.0664 12.0248C26.0664 12.2366 26.1504 12.4398 26.3 12.5898L30.215 16.4998C32.1707 18.4648 33.4428 21.0065 33.8434 23.7498C33.8898 24.0702 34.0321 24.3691 34.2517 24.6071C34.4712 24.8451 34.7577 25.0111 35.0734 25.0831C35.3882 25.1542 35.7172 25.1285 36.0172 25.0096C36.3172 24.8906 36.5744 24.6839 36.755 24.4164V24.4098Z" fill="#EBF1F2"/>
<path d="M31.9485 3.55826L29.6901 1.29993C29.3902 1.00121 28.9842 0.833496 28.5609 0.833496C28.1377 0.833496 27.7317 1.00121 27.4318 1.29993L24.6201 4.11159C24.9198 3.81247 25.3259 3.64448 25.7493 3.64448C26.1727 3.64448 26.5788 3.81247 26.8785 4.11159L29.1384 6.37159C29.4362 6.67161 29.6034 7.0772 29.6034 7.49993C29.6034 7.92265 29.4362 8.32824 29.1384 8.62826L31.9501 5.81659C32.2482 5.51628 32.4153 5.11022 32.415 4.68708C32.4147 4.26395 32.247 3.85813 31.9485 3.55826Z" fill="white"/>
<path d="M35.3333 10.3331L31.9467 6.9431C31.7967 6.79349 31.5935 6.70947 31.3817 6.70947C31.1698 6.70947 30.9666 6.79349 30.8167 6.9431L28 9.75477C28.15 9.60516 28.3532 9.52114 28.565 9.52114C28.7768 9.52114 28.98 9.60516 29.13 9.75477L32.52 13.1448C34.0426 14.6784 35.0889 16.62 35.5325 18.7351C35.9761 20.8502 35.7981 23.0486 35.02 25.0648C35.0383 25.0648 35.0533 25.0814 35.0717 25.0848C35.3865 25.1558 35.7155 25.1302 36.0155 25.0113C36.3155 24.8923 36.5727 24.6856 36.7533 24.4181C38.1731 22.2653 38.8071 19.6888 38.5484 17.123C38.2897 14.5573 37.1542 12.1592 35.3333 10.3331Z" fill="white"/>
<path d="M31.9482 3.55826L29.6898 1.29993C29.3899 1.00121 28.9839 0.833496 28.5607 0.833496C28.1374 0.833496 27.7314 1.00121 27.4315 1.29993L20.6565 8.07492C20.508 8.22308 20.3902 8.39908 20.3098 8.59284C20.2294 8.7866 20.188 8.99432 20.188 9.20409C20.188 9.41387 20.2294 9.62158 20.3098 9.81534C20.3902 10.0091 20.508 10.1851 20.6565 10.3333L22.9148 12.5916C23.2147 12.8903 23.6207 13.058 24.044 13.058C24.4673 13.058 24.8733 12.8903 25.1732 12.5916L31.9498 5.81659C32.2479 5.51628 32.415 5.11022 32.4147 4.68708C32.4144 4.26395 32.2467 3.85813 31.9482 3.55826Z" stroke="#191919" stroke-width="1.66667" stroke-linecap="round" stroke-linejoin="round"/>
<path d="M36.755 24.4098C38.1724 22.2576 38.8049 19.6827 38.5459 17.1188C38.287 14.5548 37.1525 12.1584 35.3334 10.3331L31.9467 6.9431C31.7967 6.79349 31.5935 6.70947 31.3817 6.70947C31.1699 6.70947 30.9667 6.79349 30.8167 6.9431L26.3 11.4598C26.1504 11.6097 26.0664 11.8129 26.0664 12.0248C26.0664 12.2366 26.1504 12.4398 26.3 12.5898L30.215 16.4998C32.1707 18.4648 33.4428 21.0065 33.8434 23.7498C33.8898 24.0702 34.0321 24.3691 34.2517 24.6071C34.4712 24.8451 34.7577 25.0111 35.0734 25.0831C35.3882 25.1542 35.7172 25.1285 36.0172 25.0096C36.3172 24.8906 36.5744 24.6839 36.755 24.4164V24.4098Z" stroke="#191919" stroke-width="1.66667" stroke-linecap="round" stroke-linejoin="round"/>
<path d="M11.6468 32.2466C11.4164 32.478 11.1425 32.6617 10.8409 32.787C10.5393 32.9123 10.2159 32.9768 9.88933 32.9768C9.56273 32.9768 9.23935 32.9123 8.93775 32.787C8.63614 32.6617 8.36227 32.478 8.13183 32.2466L6.0535 30.1916C5.82205 29.9611 5.63839 29.6872 5.51307 29.3856C5.38775 29.084 5.32324 28.7607 5.32324 28.4341C5.32324 28.1075 5.38775 27.7841 5.51307 27.4825C5.63839 27.1809 5.82205 26.907 6.0535 26.6766C6.28317 26.4411 6.55843 26.2549 6.86247 26.1294C7.16651 26.0039 7.49294 25.9417 7.82183 25.9466C8.1475 25.9418 8.47065 26.0041 8.77116 26.1297C9.07167 26.2553 9.34309 26.4415 9.5685 26.6766L11.6468 28.7332C11.8778 28.9637 12.0611 29.2375 12.1862 29.539C12.3112 29.8404 12.3756 30.1635 12.3756 30.4899C12.3756 30.8162 12.3112 31.1394 12.1862 31.4408C12.0611 31.7422 11.8778 32.016 11.6468 32.2466Z" fill="#EBF1F2" stroke="#191919" stroke-width="1.66667" stroke-linecap="round" stroke-linejoin="round"/>
<path d="M8.08174 25.1415C7.63215 24.672 7.38429 24.0451 7.39126 23.3951C7.39822 22.745 7.65947 22.1236 8.11903 21.6638C8.57858 21.204 9.19992 20.9425 9.84995 20.9352C10.5 20.9279 11.127 21.1755 11.5967 21.6249L15.2217 25.2515C15.4529 25.4803 15.6364 25.7526 15.7617 26.0527C15.887 26.3527 15.9516 26.6747 15.9517 26.9999C15.9508 27.662 15.6884 28.2969 15.2217 28.7665C14.7458 29.2137 14.1173 29.4627 13.4642 29.4627C12.8112 29.4627 12.1827 29.2137 11.7067 28.7665L8.08174 25.1415Z" fill="#EBF1F2" stroke="#191919" stroke-width="1.66667" stroke-linecap="round" stroke-linejoin="round"/>
<path d="M18.6901 25.2035C18.4597 25.435 18.1858 25.6186 17.8842 25.7439C17.5826 25.8692 17.2592 25.9338 16.9326 25.9338C16.606 25.9338 16.2826 25.8692 15.981 25.7439C15.6794 25.6186 15.4055 25.435 15.1751 25.2035L11.5501 21.5785C11.3186 21.3481 11.135 21.0742 11.0097 20.7726C10.8843 20.471 10.8198 20.1476 10.8198 19.821C10.8198 19.4944 10.8843 19.171 11.0097 18.8694C11.135 18.5678 11.3186 18.2939 11.5501 18.0635C11.778 17.8318 12.0499 17.6478 12.3498 17.5225C12.6498 17.3971 12.9717 17.3329 13.2968 17.3335C13.9597 17.3328 14.5957 17.5953 15.0651 18.0635L18.6901 21.6885C18.9215 21.9189 19.1052 22.1928 19.2305 22.4944C19.3558 22.796 19.4203 23.1194 19.4203 23.446C19.4203 23.7726 19.3558 24.096 19.2305 24.3976C19.1052 24.6992 18.9215 24.9731 18.6901 25.2035Z" fill="#EBF1F2" stroke="#191919" stroke-width="1.66667" stroke-linecap="round" stroke-linejoin="round"/>
<path d="M21.3483 20.1534V20.3617C21.3589 20.5865 21.3008 20.8091 21.1817 21C21.0626 21.1908 20.8882 21.3409 20.6816 21.4301C20.2196 21.6264 19.7103 21.6837 19.2162 21.5948C18.7221 21.506 18.2647 21.275 17.9 20.9301L15.8466 18.8517C15.6119 18.6258 15.4263 18.354 15.3013 18.0532C15.1762 17.7524 15.1145 17.4291 15.12 17.1034C15.1159 16.7746 15.1789 16.4484 15.3049 16.1447C15.431 15.8409 15.6176 15.566 15.8533 15.3367C16.3292 14.8896 16.9577 14.6406 17.6108 14.6406C18.2639 14.6406 18.8924 14.8896 19.3683 15.3367L21.335 17.3367L21.3866 17.3934" fill="#EBF1F2"/>
<path d="M21.3483 20.1534V20.3617C21.3589 20.5865 21.3008 20.8091 21.1817 21C21.0626 21.1908 20.8882 21.3409 20.6816 21.4301C20.2196 21.6264 19.7103 21.6837 19.2162 21.5948C18.7221 21.506 18.2647 21.275 17.9 20.9301L15.8466 18.8517C15.6119 18.6258 15.4263 18.354 15.3013 18.0532C15.1762 17.7524 15.1145 17.4291 15.12 17.1034C15.1159 16.7746 15.1789 16.4484 15.3049 16.1447C15.431 15.8409 15.6176 15.566 15.8533 15.3367C16.3292 14.8896 16.9577 14.6406 17.6108 14.6406C18.2639 14.6406 18.8924 14.8896 19.3683 15.3367L21.335 17.3367L21.3866 17.3934" stroke="#191919" stroke-width="1.66667" stroke-linecap="round" stroke-linejoin="round"/>
<path d="M8.07494 32.1919L1.18994 39.0852" stroke="#191919" stroke-width="1.66667" stroke-linecap="round" stroke-linejoin="round"/>
<path d="M26.9783 13.2686L23.7983 16.4519" stroke="#191919" stroke-width="1.66667" stroke-linecap="round" stroke-linejoin="round"/>
<path d="M15.3733 39.0851L12 35.5001L24.54 23.0817L21.6333 20.5001C21.1842 20.0512 20.9318 19.4423 20.9317 18.8073C20.9315 18.1724 21.1836 17.5633 21.6325 17.1142C22.0814 16.6651 22.6903 16.4128 23.3252 16.4126C23.9602 16.4124 24.5692 16.6645 25.0183 17.1134L28.4033 20.5001C28.9974 21.0934 29.4686 21.798 29.7902 22.5736C30.1117 23.3491 30.2772 24.1805 30.2772 25.0201C30.2772 25.8597 30.1117 26.691 29.7902 27.4666C29.4686 28.2422 28.9974 28.9468 28.4033 29.5401L27.8467 30.0967C26.9495 30.9952 26.4456 32.2129 26.4456 33.4826C26.4456 34.7522 26.9495 35.97 27.8467 36.8684L29.9067 39.1684" fill="#EBF1F2"/>
<path d="M15.3733 39.0851L12 35.5001L24.54 23.0817L21.6333 20.5001C21.1842 20.0512 20.9318 19.4423 20.9317 18.8073C20.9315 18.1724 21.1836 17.5633 21.6325 17.1142C22.0814 16.6651 22.6903 16.4128 23.3252 16.4126C23.9602 16.4124 24.5692 16.6645 25.0183 17.1134L28.4033 20.5001C28.9974 21.0934 29.4686 21.798 29.7902 22.5736C30.1117 23.3491 30.2772 24.1805 30.2772 25.0201C30.2772 25.8597 30.1117 26.691 29.7902 27.4666C29.4686 28.2422 28.9974 28.9468 28.4033 29.5401L27.8467 30.0967C26.9495 30.9952 26.4456 32.2129 26.4456 33.4826C26.4456 34.7522 26.9495 35.97 27.8467 36.8684L29.9067 39.1684" stroke="#191919" stroke-width="1.66667" stroke-linecap="round" stroke-linejoin="round"/>
<path d="M8.35498 39.1001L24.5316 23.0801" stroke="#191919" stroke-width="1.66667" stroke-linecap="round" stroke-linejoin="round"/>
<path d="M27.79 19.8815L30.6767 16.9932" stroke="#191919" stroke-width="1.66667" stroke-linecap="round" stroke-linejoin="round"/>
</g>
<defs>
<clipPath id="clip0_19_759">
<rect width="40" height="40" fill="white"/>
</clipPath>
</defs>
</svg>
