<svg width="40" height="40" viewBox="0 0 40 40" fill="none" xmlns="http://www.w3.org/2000/svg">
<g clip-path="url(#clip0_19_951)">
<path d="M1.66732 39.0186C1.4463 39.0186 1.23434 38.9308 1.07806 38.7745C0.921782 38.6182 0.833984 38.4062 0.833984 38.1852V26.0836C0.834274 26.0451 0.837057 26.0067 0.842318 25.9686L3.12898 9.73522C3.15709 9.53642 3.25603 9.35445 3.40761 9.22278C3.55919 9.09111 3.7532 9.01859 3.95398 9.01855H6.54398C6.73609 9.01852 6.92232 9.08485 7.07114 9.20634C7.21995 9.32782 7.32223 9.49699 7.36065 9.68522L10.1673 23.2086C10.1948 23.3413 10.2542 23.4654 10.3405 23.57C10.4268 23.6746 10.5373 23.7566 10.6624 23.8088C10.7876 23.861 10.9235 23.8819 11.0586 23.8697C11.1936 23.8574 11.3236 23.8124 11.4373 23.7386L17.879 19.5536C18.0048 19.472 18.1504 19.4258 18.3003 19.4201C18.4501 19.4143 18.5988 19.4491 18.7306 19.5208C18.8623 19.5925 18.9723 19.6984 19.0489 19.8273C19.1254 19.9563 19.1658 20.1036 19.1657 20.2536V22.9769C19.1656 23.1224 19.2037 23.2653 19.276 23.3916C19.3484 23.5178 19.4525 23.6229 19.5781 23.6963C19.7036 23.7698 19.8463 23.8092 19.9917 23.8104C20.1372 23.8117 20.2805 23.7748 20.4073 23.7036L27.954 19.4552C28.0808 19.3839 28.2241 19.3471 28.3696 19.3484C28.5151 19.3496 28.6577 19.389 28.7832 19.4624C28.9088 19.5359 29.0129 19.641 29.0853 19.7672C29.1576 19.8934 29.1957 20.0364 29.1957 20.1819V23.0002C29.1955 23.1464 29.2339 23.29 29.3068 23.4167C29.3797 23.5434 29.4847 23.6487 29.6112 23.7219C29.7377 23.7952 29.8812 23.834 30.0274 23.8342C30.1735 23.8345 30.3172 23.7964 30.444 23.7236L37.9173 19.4336C38.044 19.3608 38.1875 19.3227 38.3335 19.3229C38.4795 19.3231 38.623 19.3617 38.7494 19.4347C38.8758 19.5078 38.9808 19.6129 39.0539 19.7393C39.1269 19.8658 39.1655 20.0092 39.1657 20.1552V38.1852C39.1657 38.4062 39.0779 38.6182 38.9216 38.7745C38.7653 38.9308 38.5533 39.0186 38.3323 39.0186H1.66732Z" fill="#EBF1F2"/>
<path d="M24.9307 34.4084H5.00065C4.77964 34.4084 4.56768 34.3206 4.4114 34.1644C4.25512 34.0081 4.16732 33.7961 4.16732 33.5751V21.4734C4.16484 21.4346 4.16484 21.3956 4.16732 21.3568L5.90565 9.02344H3.95398C3.7532 9.02347 3.55919 9.09599 3.40761 9.22766C3.25603 9.35933 3.15709 9.5413 3.12898 9.7401L0.842318 25.9684C0.837057 26.0065 0.834274 26.045 0.833984 26.0834V38.1851C0.833984 38.4061 0.921782 38.6181 1.07806 38.7744C1.23434 38.9306 1.4463 39.0184 1.66732 39.0184H38.334C38.555 39.0184 38.767 38.9306 38.9232 38.7744C39.0795 38.6181 39.1673 38.4061 39.1673 38.1851V34.4084H24.9307Z" fill="black" fill-opacity="0.38"/>
<path d="M1.66732 39.0186C1.4463 39.0186 1.23434 38.9308 1.07806 38.7745C0.921782 38.6182 0.833984 38.4062 0.833984 38.1852V26.0836C0.834274 26.0451 0.837057 26.0067 0.842318 25.9686L3.12898 9.73522C3.15709 9.53642 3.25603 9.35445 3.40761 9.22278C3.55919 9.09111 3.7532 9.01859 3.95398 9.01855H6.54398C6.73609 9.01852 6.92232 9.08485 7.07114 9.20634C7.21995 9.32782 7.32223 9.49699 7.36065 9.68522L10.1673 23.2086C10.1948 23.3413 10.2542 23.4654 10.3405 23.57C10.4268 23.6746 10.5373 23.7566 10.6624 23.8088C10.7876 23.861 10.9235 23.8819 11.0586 23.8697C11.1936 23.8574 11.3236 23.8124 11.4373 23.7386L17.879 19.5536C18.0048 19.472 18.1504 19.4258 18.3003 19.4201C18.4501 19.4143 18.5988 19.4491 18.7306 19.5208C18.8623 19.5925 18.9723 19.6984 19.0489 19.8273C19.1254 19.9563 19.1658 20.1036 19.1657 20.2536V22.9769C19.1656 23.1224 19.2037 23.2653 19.276 23.3916C19.3484 23.5178 19.4525 23.6229 19.5781 23.6963C19.7036 23.7698 19.8463 23.8092 19.9917 23.8104C20.1372 23.8117 20.2805 23.7748 20.4073 23.7036L27.954 19.4552C28.0808 19.3839 28.2241 19.3471 28.3696 19.3484C28.5151 19.3496 28.6577 19.389 28.7832 19.4624C28.9088 19.5359 29.0129 19.641 29.0853 19.7672C29.1576 19.8934 29.1957 20.0364 29.1957 20.1819V23.0002C29.1955 23.1464 29.2339 23.29 29.3068 23.4167C29.3797 23.5434 29.4847 23.6487 29.6112 23.7219C29.7377 23.7952 29.8812 23.834 30.0274 23.8342C30.1735 23.8345 30.3172 23.7964 30.444 23.7236L37.9173 19.4336C38.044 19.3608 38.1875 19.3227 38.3335 19.3229C38.4795 19.3231 38.623 19.3617 38.7494 19.4347C38.8758 19.5078 38.9808 19.6129 39.0539 19.7393C39.1269 19.8658 39.1655 20.0092 39.1657 20.1552V38.1852C39.1657 38.4062 39.0779 38.6182 38.9216 38.7745C38.7653 38.9308 38.5533 39.0186 38.3323 39.0186H1.66732Z" stroke="#191919" stroke-width="1.66667" stroke-linecap="round" stroke-linejoin="round"/>
<path d="M4.16602 4.85119C11.666 -5.14881 19.166 8.18452 26.666 1.51786C17.4993 14.0179 10.8327 0.684523 4.16602 4.85119Z" fill="black" fill-opacity="0.38" stroke="#191919" stroke-width="1.66667" stroke-linecap="round" stroke-linejoin="round"/>
<path d="M12.5 29.0186H16.6667" stroke="#191919" stroke-width="1.66667" stroke-linecap="round" stroke-linejoin="round"/>
<path d="M12.5 34.0186H16.6667" stroke="#191919" stroke-width="1.66667" stroke-linecap="round" stroke-linejoin="round"/>
<path d="M21.666 29.0186H25.8327" stroke="#191919" stroke-width="1.66667" stroke-linecap="round" stroke-linejoin="round"/>
<path d="M21.666 34.0186H25.8327" stroke="#191919" stroke-width="1.66667" stroke-linecap="round" stroke-linejoin="round"/>
<path d="M30.834 29.0186H35.0007" stroke="#191919" stroke-width="1.66667" stroke-linecap="round" stroke-linejoin="round"/>
<path d="M30.834 34.0186H35.0007" stroke="#191919" stroke-width="1.66667" stroke-linecap="round" stroke-linejoin="round"/>
</g>
<defs>
<clipPath id="clip0_19_951">
<rect width="40" height="40" fill="white"/>
</clipPath>
</defs>
</svg>
