<?xml version="1.0" encoding="UTF-8"?>
<svg width="80.425" height="80.424" version="1.1" viewBox="0 0 69.307 69.306" xmlns="http://www.w3.org/2000/svg">
 <g transform="matrix(.77008 0 0 .77008 -3.7629 -3.8513)" featurekey="S6ay6y-0">
  <path d="m42.817 43.713c-2.543 2.415-6.376 2.188-8.789-0.364-2.29-2.409-2.315-6.254 0.228-8.663 2.423-2.289 6.376-2.188 8.671 0.229 2.416 2.544 2.304 6.503-0.11 8.798m21.948 23.136c-2.54 2.409-6.379 2.181-8.68-0.233-2.404-2.546-2.302-6.248 0.239-8.669 2.414-2.29 6.253-2.312 8.662 0.228 2.296 2.42 2.194 6.378-0.221 8.674"/>
  <path d="m55.196 55.787c-3.024 2.871-7.598 2.592-10.315-0.273-2.876-3.023-2.888-7.592 0.131-10.457 2.871-2.728 7.586-2.603 10.446 0.422 2.729 2.876 2.603 7.581-0.262 10.308"/>
  <path d="m32.499 54.221c-1.902 1.801-5 1.607-6.809-0.301-1.809-1.914-1.726-4.882 0.185-6.688 1.905-1.811 4.998-1.856 6.806 0.052 1.812 1.907 1.729 5.126-0.182 6.937"/>
  <path d="m51.665 74.429c-1.902 1.812-4.875 1.731-6.681-0.171-1.814-1.907-1.854-5.012 0.057-6.817 1.902-1.816 5.126-1.72 6.932 0.183 1.81 1.907 1.6 5-0.308 6.805"/>
  <path d="m27.892 15.099c-0.84-0.883-0.803-2.37 0.213-3.338 0.889-0.843 2.375-0.809 3.224 0.08 0.966 1.025 0.929 2.5 0.032 3.349-1.012 0.968-2.498 0.928-3.469-0.091"/>
  <path d="m11.468 30.494c-0.843-0.889-0.8-2.364 0.088-3.213 1.022-0.969 2.5-0.928 3.349-0.045 0.962 1.02 0.925 2.506-0.094 3.474-0.891 0.843-2.377 0.81-3.343-0.216"/>
  <path d="m5.85 22.719c-0.689-0.723-0.655-1.93 0.065-2.619 0.832-0.792 2.042-0.764 2.729-0.029 0.789 0.826 0.754 2.028-0.077 2.814-0.721 0.689-1.931 0.666-2.717-0.166"/>
  <path d="m20.732 8.207c-0.692-0.729-0.658-1.931 0.068-2.626 0.826-0.786 2.036-0.751 2.725-0.028 0.786 0.832 0.752 2.039-0.077 2.825-0.722 0.689-1.932 0.661-2.716-0.171"/>
  <path d="m9.529 11.208c-0.846-0.894-0.803-2.381 0.08-3.229 0.889-0.837 2.381-0.797 3.232 0.097 0.954 1.008 0.915 2.5 0.026 3.343s-2.375 0.798-3.338-0.211"/>
  <path d="m35.521 23.949c-1.449-1.521-1.256-3.867 0.146-5.194 1.523-1.446 3.748-1.39 5.194 0.132 1.327 1.406 1.267 3.633-0.25 5.074-1.405 1.338-3.76 1.395-5.09-0.012"/>
  <path d="m18.106 40.467c-1.444-1.521-1.384-3.754 0.137-5.195 1.401-1.32 3.753-1.389 5.2 0.137 1.324 1.402 1.145 3.754-0.256 5.075-1.526 1.446-3.753 1.389-5.081-0.017"/>
  <path d="m16.221 20.811c-1.327-1.4-1.139-3.753 0.253-5.08 1.527-1.446 3.756-1.384 5.081 0.018 1.453 1.521 1.396 3.753-0.134 5.199-1.398 1.327-3.75 1.39-5.2-0.137"/>
  <path d="m24.976 31.57c-1.8-1.902-1.598-4.99 0.305-6.807 1.917-1.811 4.89-1.726 6.692 0.183 1.811 1.902 1.856 5.001-0.057 6.812-1.909 1.811-5.126 1.721-6.94-0.188"/>
  <path d="m84.46 72.595c0.871 0.866 2.357 0.854 3.337-0.142 0.866-0.872 0.854-2.358-0.017-3.219-1.003-0.985-2.478-0.979-3.344-0.103-0.979 0.992-0.979 2.473 0.024 3.464"/>
  <path d="m68.717 88.696c0.878 0.86 2.358 0.854 3.225-0.017 0.99-1.003 0.979-2.483 0.113-3.35-1.002-0.979-2.494-0.968-3.475 0.023-0.865 0.873-0.853 2.359 0.137 3.344"/>
  <path d="m76.378 94.478c0.712 0.7 1.919 0.694 2.626-0.012 0.809-0.809 0.797-2.021 0.085-2.723-0.814-0.803-2.021-0.803-2.831 0.012-0.695 0.712-0.695 1.92 0.12 2.723"/>
  <path d="m91.197 79.908c0.712 0.695 1.926 0.695 2.626-0.022 0.809-0.81 0.798-2.022 0.091-2.723-0.814-0.809-2.027-0.798-2.83 0.022-0.701 0.707-0.701 1.92 0.113 2.723"/>
  <path d="m87.957 91.043c0.883 0.854 2.369 0.849 3.234-0.022 0.86-0.866 0.854-2.364-0.022-3.224-0.991-0.98-2.483-0.975-3.349-0.103-0.86 0.871-0.842 2.364 0.137 3.349"/>
  <path d="m75.769 64.786c1.486 1.481 3.839 1.339 5.194-0.028 1.48-1.492 1.469-3.719-0.023-5.194-1.378-1.361-3.604-1.35-5.08 0.143-1.356 1.372-1.47 3.73-0.091 5.079"/>
  <path d="m58.887 81.856c1.492 1.48 3.719 1.464 5.206-0.029 1.35-1.378 1.458-3.719-0.034-5.199-1.379-1.355-3.726-1.23-5.081 0.147-1.469 1.498-1.458 3.726-0.091 5.081"/>
  <path d="m78.508 84.146c1.367 1.361 3.725 1.219 5.075-0.147 1.486-1.504 1.469-3.726 0.097-5.081-1.492-1.475-3.726-1.47-5.2 0.028-1.362 1.366-1.47 3.73 0.028 5.2"/>
  <path d="m67.92 75.164c1.868 1.851 4.967 1.708 6.823-0.16 1.846-1.868 1.822-4.841-0.046-6.691-1.868-1.852-4.966-1.96-6.812-0.086-1.856 1.874-1.833 5.091 0.035 6.937"/>
  <path d="m53.373 34.127c1.88-1.84 1.8-4.943-0.034-6.817-1.845-1.88-4.812-1.913-6.692-0.073-1.882 1.834-2.042 4.926-0.205 6.806 1.84 1.879 5.063 1.918 6.931 0.084"/>
  <path d="m72.841 54.051c1.88-1.834 1.919-4.812 0.091-6.688-1.845-1.885-4.943-2.039-6.823-0.205-1.879 1.834-1.913 5.059-0.079 6.938 1.833 1.88 4.931 1.795 6.811-0.045"/>
  <path d="m56.176 42.927c-2.409-2.546-2.188-6.384 0.364-8.788 2.415-2.289 6.254-2.312 8.669 0.229 2.278 2.414 2.176 6.379-0.239 8.662-2.54 2.414-6.493 2.306-8.794-0.103m-23.135 21.939c-2.407-2.54-2.179-6.379 0.236-8.663 2.54-2.414 6.256-2.318 8.663 0.223 2.292 2.415 2.315 6.259-0.225 8.668-2.421 2.296-6.38 2.193-8.674-0.228"/>
  <path d="m84.79 27.999c0.889-0.843 2.381-0.798 3.338 0.21 0.843 0.895 0.797 2.376-0.08 3.219-1.02 0.975-2.506 0.934-3.349 0.04-0.969-1.015-0.923-2.501 0.091-3.469"/>
  <path d="m69.39 11.584c0.888-0.843 2.381-0.809 3.224 0.08 0.968 1.02 0.923 2.494 0.034 3.35-1.014 0.968-2.506 0.922-3.469-0.092-0.843-0.901-0.803-2.375 0.211-3.338"/>
  <path d="m77.17 5.957c0.723-0.689 1.936-0.655 2.625 0.068 0.786 0.832 0.758 2.034 0.023 2.723-0.82 0.792-2.028 0.752-2.819-0.074-0.689-0.729-0.655-1.931 0.171-2.717"/>
  <path d="m91.682 20.834c0.729-0.684 1.937-0.654 2.626 0.068 0.78 0.832 0.752 2.045 0.028 2.729-0.832 0.785-2.039 0.752-2.825-0.074-0.684-0.724-0.66-1.937 0.171-2.723"/>
  <path d="m88.686 9.637c0.889-0.849 2.375-0.809 3.219 0.08 0.849 0.889 0.803 2.381-0.086 3.224-1.014 0.957-2.506 0.923-3.349 0.034-0.838-0.884-0.798-2.376 0.216-3.338"/>
  <path d="m75.939 35.625c1.515-1.44 3.873-1.253 5.2 0.148 1.44 1.521 1.384 3.742-0.143 5.194-1.396 1.327-3.623 1.265-5.075-0.257-1.326-1.394-1.383-3.758 0.018-5.085"/>
  <path d="m59.422 18.214c1.521-1.44 3.748-1.39 5.2 0.137 1.327 1.401 1.384 3.748-0.143 5.2-1.4 1.327-3.747 1.145-5.074-0.256-1.441-1.527-1.384-3.754 0.017-5.081"/>
  <path d="m79.071 16.328c1.407-1.332 3.76-1.139 5.093 0.257 1.446 1.521 1.378 3.753-0.018 5.081-1.532 1.446-3.759 1.395-5.2-0.137-1.327-1.396-1.389-3.754 0.125-5.201"/>
  <path d="m68.312 25.088c1.908-1.799 5.001-1.6 6.812 0.303 1.806 1.914 1.72 4.881-0.183 6.687-1.908 1.812-5.001 1.856-6.812-0.052-1.804-1.909-1.719-5.126 0.183-6.938"/>
  <path d="m27.291 84.562c-0.866 0.877-0.852 2.363 0.14 3.343 0.877 0.866 2.364 0.86 3.227-0.017 0.988-0.997 0.977-2.483 0.105-3.344-0.997-0.98-2.478-0.98-3.472 0.018"/>
  <path d="m11.189 68.83c-0.854 0.872-0.854 2.358 0.022 3.219 1 0.99 2.48 0.979 3.349 0.107 0.985-0.996 0.968-2.483-0.02-3.474-0.876-0.866-2.362-0.848-3.351 0.148"/>
  <path d="m5.408 76.485c-0.7 0.718-0.695 1.919 0.012 2.625 0.817 0.81 2.03 0.798 2.728 0.086 0.812-0.809 0.8-2.021-0.017-2.825-0.709-0.7-1.92-0.694-2.723 0.114"/>
  <path d="m19.986 91.311c-0.701 0.712-0.698 1.914 0.014 2.62 0.812 0.803 2.022 0.798 2.725 0.091 0.8-0.82 0.8-2.027-0.02-2.824-0.708-0.708-1.916-0.708-2.719 0.113"/>
  <path d="m8.849 88.075c-0.857 0.872-0.857 2.358 0.02 3.229 0.868 0.854 2.36 0.849 3.226-0.028 0.971-0.991 0.968-2.483 0.103-3.349-0.875-0.854-2.364-0.842-3.349 0.148"/>
  <path d="m35.102 75.87c-1.478 1.492-1.341 3.845 0.029 5.2 1.5 1.48 3.725 1.469 5.2-0.023 1.361-1.378 1.347-3.604-0.148-5.08-1.368-1.362-3.728-1.47-5.081-0.097"/>
  <path d="m18.033 58.994c-1.478 1.498-1.461 3.725 0.028 5.2 1.378 1.355 3.725 1.464 5.2-0.028 1.355-1.373 1.23-3.726-0.143-5.081-1.494-1.475-3.73-1.464-5.085-0.091"/>
  <path d="m15.746 78.609c-1.364 1.373-1.222 3.73 0.146 5.086 1.495 1.476 3.722 1.464 5.081 0.098 1.483-1.51 1.472-3.731-0.026-5.212-1.371-1.35-3.729-1.464-5.201 0.028"/>
  <path d="m24.719 68.027c-1.845 1.874-1.703 4.973 0.165 6.817 1.871 1.856 4.847 1.828 6.687-0.04 1.851-1.868 1.962-4.966 0.094-6.812-1.874-1.85-5.095-1.827-6.946 0.035"/>
 </g>
</svg>
